<svg xmlns="http://www.w3.org/2000/svg" xmlns:xlink="http://www.w3.org/1999/xlink" viewBox="0 0 9737 841.94"><defs><style>.cls-1,.cls-13,.cls-28,.cls-30,.cls-37,.cls-41,.cls-49,.cls-52,.cls-72,.cls-75,.cls-76{fill:#fff;}.cls-2,.cls-57{fill:#0582d8;}.cls-3,.cls-60,.cls-61{fill:#1c4156;}.cls-4{fill:url(#linear-gradient);}.cls-5{fill:url(#linear-gradient-2);}.cls-6{fill:url(#linear-gradient-3);}.cls-7{fill:url(#linear-gradient-4);}.cls-8{fill:url(#linear-gradient-5);}.cls-9{fill:#00a5d8;}.cls-10{fill:#07b1e5;}.cls-11,.cls-59{fill:#e27203;}.cls-12,.cls-16,.cls-20,.cls-31,.cls-33,.cls-43,.cls-44,.cls-54,.cls-82,.cls-87,.cls-88{fill:#0e8bc9;}.cls-13{font-size:21.94px;font-family:Calibri-Light, Calibri;}.cls-14{letter-spacing:-0.01em;}.cls-15{letter-spacing:0em;}.cls-16{font-size:65.66px;}.cls-16,.cls-20,.cls-24,.cls-25,.cls-28,.cls-31,.cls-34,.cls-36{font-family:Raleway-BoldItalic, Raleway;font-style:italic;}.cls-17,.cls-37,.cls-43,.cls-45,.cls-48,.cls-49,.cls-54,.cls-57,.cls-58,.cls-59,.cls-60,.cls-72,.cls-76,.cls-77,.cls-80,.cls-81,.cls-82,.cls-83,.cls-85,.cls-86,.cls-87,.cls-88,.cls-89,.cls-90,.cls-91,.cls-96{font-weight:700;}.cls-18,.cls-19,.cls-21,.cls-22,.cls-26,.cls-27,.cls-29,.cls-32{font-family:Raleway-BlackItalic, Raleway;}.cls-18{letter-spacing:-0.03em;}.cls-19{letter-spacing:0em;}.cls-20,.cls-24,.cls-25{font-size:52.03px;}.cls-21,.cls-26{letter-spacing:-0.03em;}.cls-23,.cls-25,.cls-36,.cls-47,.cls-48,.cls-81,.cls-86,.cls-89{fill:#fc9c20;}.cls-26,.cls-27{fill:#088ab2;}.cls-28{font-size:99.27px;}.cls-29{letter-spacing:-0.03em;}.cls-30,.cls-33,.cls-35{fill-rule:evenodd;}.cls-31,.cls-34,.cls-36{font-size:72.1px;}.cls-32{letter-spacing:-0.03em;}.cls-37,.cls-43,.cls-45,.cls-48{font-size:70.41px;}.cls-37,.cls-43,.cls-45,.cls-48,.cls-49,.cls-54,.cls-57,.cls-58,.cls-59,.cls-60,.cls-72,.cls-76,.cls-77,.cls-80,.cls-81,.cls-82,.cls-83,.cls-85,.cls-86,.cls-87,.cls-88,.cls-89,.cls-90,.cls-91,.cls-96{font-family:Calibri-Bold, Calibri;}.cls-38{letter-spacing:-0.02em;}.cls-39{letter-spacing:0em;}.cls-40{letter-spacing:-0.03em;}.cls-41,.cls-44,.cls-46,.cls-47{font-size:29.45px;}.cls-41,.cls-44,.cls-46,.cls-47,.cls-52,.cls-61{font-family:BebasNeueLight, Bebas Neue;}.cls-42{letter-spacing:0em;}.cls-49{font-size:84.01px;}.cls-50{letter-spacing:-0.02em;}.cls-51{letter-spacing:-0.03em;}.cls-52{font-size:24.51px;letter-spacing:0.14em;}.cls-53{letter-spacing:0.13em;}.cls-54,.cls-57,.cls-58,.cls-59,.cls-60{font-size:59.62px;}.cls-55{letter-spacing:-0.02em;}.cls-56{letter-spacing:-0.03em;}.cls-61{font-size:17.39px;letter-spacing:0.13em;}.cls-62{letter-spacing:0.13em;}.cls-63{letter-spacing:0.14em;}.cls-64{fill:url(#linear-gradient-6);}.cls-65{fill:url(#linear-gradient-7);}.cls-66{fill:url(#linear-gradient-8);}.cls-67{fill:url(#linear-gradient-9);}.cls-68{fill:url(#linear-gradient-10);}.cls-69{fill:url(#linear-gradient-11);}.cls-70{fill:url(#linear-gradient-12);}.cls-71{fill:url(#linear-gradient-13);}.cls-72,.cls-87,.cls-90{font-size:104.32px;}.cls-73{letter-spacing:-0.01em;}.cls-74,.cls-94{letter-spacing:-0.01em;}.cls-75{stroke:#fff;stroke-linecap:round;stroke-linejoin:round;stroke-width:9px;}.cls-76,.cls-88,.cls-89,.cls-91,.cls-96{font-size:39.61px;}.cls-77,.cls-81,.cls-83{font-size:88.53px;}.cls-78{letter-spacing:-0.01em;}.cls-79{letter-spacing:-0.01em;}.cls-80,.cls-82,.cls-85,.cls-86{font-size:33.61px;}.cls-83,.cls-84,.cls-85{fill:#1793c9;}.cls-92,.cls-93,.cls-94,.cls-96{fill:#e8860c;}.cls-93,.cls-95{letter-spacing:0em;}</style><linearGradient id="linear-gradient" x1="924.21" y1="778.31" x2="981.89" y2="778.31" gradientUnits="userSpaceOnUse"><stop offset="0" stop-color="#001927"/><stop offset="0.04" stop-color="#001c30"/><stop offset="0.15" stop-color="#002241"/><stop offset="0.29" stop-color="#00264c"/><stop offset="0.47" stop-color="#002853"/><stop offset="1" stop-color="#002955"/></linearGradient><linearGradient id="linear-gradient-2" x1="962.66" y1="743.34" x2="1001" y2="743.34" xlink:href="#linear-gradient"/><linearGradient id="linear-gradient-3" x1="800.46" y1="778.13" x2="856.78" y2="778.13" xlink:href="#linear-gradient"/><linearGradient id="linear-gradient-4" x1="850.53" y1="778.13" x2="899.02" y2="778.13" xlink:href="#linear-gradient"/><linearGradient id="linear-gradient-5" x1="899.68" y1="778.13" x2="924.29" y2="778.13" xlink:href="#linear-gradient"/><linearGradient id="linear-gradient-6" x1="2300.59" y1="729.14" x2="2332.72" y2="729.14" xlink:href="#linear-gradient"/><linearGradient id="linear-gradient-7" x1="2095.92" y1="754.58" x2="2123.63" y2="754.58" xlink:href="#linear-gradient"/><linearGradient id="linear-gradient-8" x1="2128.76" y1="754.67" x2="2156.9" y2="754.67" xlink:href="#linear-gradient"/><linearGradient id="linear-gradient-9" x1="2162.56" y1="754.58" x2="2170.3" y2="754.58" xlink:href="#linear-gradient"/><linearGradient id="linear-gradient-10" x1="2175.18" y1="754.58" x2="2210.11" y2="754.58" xlink:href="#linear-gradient"/><linearGradient id="linear-gradient-11" x1="2213.9" y1="754.83" x2="2244.89" y2="754.83" xlink:href="#linear-gradient"/><linearGradient id="linear-gradient-12" x1="2249.35" y1="754.67" x2="2278.37" y2="754.67" xlink:href="#linear-gradient"/><linearGradient id="linear-gradient-13" x1="2279.46" y1="754.58" x2="2315.37" y2="754.58" xlink:href="#linear-gradient"/></defs><title>Asset 34</title><g id="Layer_2" data-name="Layer 2"><g id="App_Icon_Kit_B" data-name="App Icon Kit B"><g id="App_Icon_and_Badge" data-name="App Icon and Badge"><rect class="cls-1" x="615" width="596" height="841.94"/><path d="M969.74,338.53a4.41,4.41,0,0,0-4.18-3H933.12a4.44,4.44,0,0,0-4.19,3L922.8,356.2v23.59a3,3,0,0,0,3,2.95h3a3,3,0,0,0,2.94-2.95v-3H967v3a3,3,0,0,0,3,2.95h2.95a3,3,0,0,0,3-2.95V356.2ZM933.12,368a4.42,4.42,0,1,1,4.42-4.42A4.41,4.41,0,0,1,933.12,368Zm32.44,0a4.42,4.42,0,1,1,4.42-4.42A4.42,4.42,0,0,1,965.56,368ZM928.7,353.25,933.12,340h32.44L970,353.25Z"/><path d="M976.07,343.25c1.08,2.8,2.89,2.82,4,0L993,311.68c1.14-2.78-.1-3.9-2.76-2.5l-30.22,15.91c-2.66,1.4-2.47,3.2.43,4l11.32,3.18Z"/><path d="M818.72,335.91h12.73l-4.06,19c4-4.6,12.38-12.8,18.15-19h15.22l-20.63,19.47,11.69,26.68H838l-7.6-19.17-5.65,4.69-3,14.48H808.93Z"/><path d="M871.43,364.31l-3.72,17.75H855l9.78-46.15h19.84c9.85,0,15,4.89,15,12.12,0,6.28-3.76,10.53-9.5,12.16,2.47,1.09,5.46,3.89,3.9,11.4-1,4.81-1.76,8.47-1.55,10.47h-12.2c-.27-2,.09-5.25,1.27-10.89.94-4.36.5-6.86-4.07-6.86Zm1.91-9h5.89c4.39,0,7.45-1.74,7.45-5.88,0-2.77-1.46-4.57-5.4-4.57h-5.74Z"/><path d="M922.87,335.91l-9.78,46.15H900.23L910,335.91Z"/><path class="cls-2" d="M969.4,202.1a4.4,4.4,0,0,0-4.17-3H933a4.41,4.41,0,0,0-4.17,3l-6.1,17.57v23.47a2.94,2.94,0,0,0,2.93,2.94h2.94a2.94,2.94,0,0,0,2.93-2.94v-2.93H966.7v2.93a2.94,2.94,0,0,0,2.93,2.94h2.94a2.93,2.93,0,0,0,2.93-2.94V219.67ZM933,231.41a4.4,4.4,0,1,1,4.4-4.4A4.39,4.39,0,0,1,933,231.41Zm32.27,0a4.4,4.4,0,1,1,4.4-4.4A4.4,4.4,0,0,1,965.23,231.41Zm-36.67-14.67,4.4-13.21h32.27l4.4,13.21Z"/><path class="cls-2" d="M975.69,206.79c1.08,2.79,2.88,2.8,4,0l12.88-31.45c1.13-2.77-.1-3.89-2.74-2.49l-30.07,15.83c-2.65,1.39-2.46,3.18.42,4l11.27,3.16Z"/><path class="cls-2" d="M819.13,199.48H831.8l-4,18.9c3.94-4.58,12.32-12.73,18.07-18.9H861l-20.53,19.37,11.63,26.55H838.3l-7.56-19.07L825.11,231l-3,14.4H809.39Z"/><path class="cls-2" d="M871.58,227.74l-3.7,17.66H855.24L865,199.48h19.74c9.81,0,14.93,4.86,14.93,12.06,0,6.25-3.73,10.47-9.45,12.1,2.46,1.08,5.43,3.87,3.88,11.34-1,4.79-1.75,8.43-1.54,10.42H880.39c-.27-2,.09-5.22,1.26-10.84.93-4.34.5-6.82-4-6.82Zm1.9-8.93h5.86c4.37,0,7.42-1.74,7.42-5.85,0-2.75-1.46-4.55-5.38-4.55h-5.71Z"/><path class="cls-2" d="M922.77,199.48,913,245.4h-12.8L910,199.48Z"/><path class="cls-3" d="M969.4,611.65a4.41,4.41,0,0,0-4.17-3H933a4.42,4.42,0,0,0-4.17,3l-6.1,17.57V652.7a2.94,2.94,0,0,0,2.93,2.93h2.94a2.93,2.93,0,0,0,2.93-2.93v-2.94H966.7v2.94a2.94,2.94,0,0,0,2.93,2.93h2.94a2.93,2.93,0,0,0,2.93-2.93V629.22ZM933,641a4.4,4.4,0,1,1,4.4-4.4A4.39,4.39,0,0,1,933,641Zm32.27,0a4.4,4.4,0,1,1,4.4-4.4A4.4,4.4,0,0,1,965.23,641Zm-36.67-14.67,4.4-13.2h32.27l4.4,13.2Z"/><path class="cls-3" d="M975.69,616.34c1.08,2.79,2.88,2.8,4,0l12.88-31.45c1.13-2.77-.1-3.88-2.74-2.49l-30.07,15.83c-2.65,1.39-2.46,3.18.42,4l11.27,3.16Z"/><path class="cls-3" d="M819.13,609H831.8l-4,18.9c3.94-4.57,12.32-12.73,18.07-18.9H861L840.44,628.4,852.07,655H838.3l-7.56-19.07-5.63,4.67-3,14.4H809.39Z"/><path class="cls-3" d="M871.58,637.29,867.88,655H855.24L865,609h19.74c9.81,0,14.93,4.87,14.93,12.06,0,6.25-3.73,10.48-9.45,12.1,2.46,1.08,5.43,3.87,3.88,11.34-1,4.8-1.75,8.43-1.54,10.42H880.39c-.27-2,.09-5.22,1.26-10.84.93-4.33.5-6.82-4-6.82Zm1.9-8.93h5.86c4.37,0,7.42-1.73,7.42-5.85,0-2.75-1.46-4.55-5.38-4.55h-5.71Z"/><path class="cls-3" d="M922.77,609,913,655h-12.8L910,609Z"/><path class="cls-4" d="M975.22,755.91a4.81,4.81,0,0,0-4.55-3.24H935.42a4.82,4.82,0,0,0-4.55,3.24l-6.66,19.19v25.64a3.22,3.22,0,0,0,3.2,3.21h3.2a3.21,3.21,0,0,0,3.21-3.21v-3.2h38.46v3.2a3.22,3.22,0,0,0,3.2,3.21h3.21a3.21,3.21,0,0,0,3.2-3.21V775.1Zm-39.8,32a4.81,4.81,0,1,1,4.81-4.8A4.8,4.8,0,0,1,935.42,787.92Zm35.25,0a4.81,4.81,0,1,1,4.81-4.8A4.79,4.79,0,0,1,970.67,787.92Zm-40.06-16,4.81-14.42h35.25l4.81,14.42Z"/><path class="cls-5" d="M982.1,761c1.18,3.05,3.14,3.06,4.37,0l14.07-34.35c1.24-3-.1-4.24-3-2.71L964.7,741.3c-2.89,1.52-2.68,3.47.46,4.35l12.31,3.46Z"/><path class="cls-6" d="M811.09,753.06h13.84l-4.41,20.64c4.31-5,13.45-13.9,19.73-20.64h16.53l-22.41,21.16,12.7,29H832l-8.26-20.83-6.14,5.1-3.29,15.73H800.46Z"/><path class="cls-7" d="M868.38,783.92l-4,19.29H850.53l10.64-50.15h21.55c10.71,0,16.3,5.31,16.3,13.17,0,6.82-4.07,11.44-10.32,13.21,2.69,1.18,5.93,4.23,4.24,12.39-1.11,5.23-1.91,9.2-1.68,11.38H878c-.29-2.16.1-5.7,1.38-11.84,1-4.74.54-7.45-4.43-7.45Zm2.08-9.75h6.39c4.78,0,8.1-1.89,8.1-6.39,0-3-1.58-5-5.87-5h-6.23Z"/><path class="cls-8" d="M924.29,753.06l-10.63,50.15h-14l10.63-50.15Z"/><path class="cls-9" d="M969.74,475.05a4.42,4.42,0,0,0-4.18-3H933.12a4.45,4.45,0,0,0-4.19,3l-6.13,17.67v23.59a3,3,0,0,0,3,3h3a3,3,0,0,0,2.94-3v-2.95H967v2.95a3,3,0,0,0,3,3h2.95a3,3,0,0,0,3-3V492.72Zm-36.62,29.46a4.43,4.43,0,1,1,4.42-4.42A4.41,4.41,0,0,1,933.12,504.51Zm32.44,0a4.43,4.43,0,1,1,4.42-4.42A4.42,4.42,0,0,1,965.56,504.51ZM928.7,489.77l4.42-13.27h32.44L970,489.77Z"/><path class="cls-10" d="M976.07,479.77c1.08,2.8,2.89,2.81,4,0L993,448.2c1.14-2.78-.1-3.9-2.76-2.5l-30.22,15.91c-2.66,1.4-2.47,3.19.43,4l11.33,3.18Z"/><path class="cls-11" d="M818.72,472.43h12.73l-4.06,19c4-4.6,12.38-12.8,18.15-19h15.22L840.13,491.9l11.69,26.68H838l-7.6-19.17-5.65,4.69-3,14.48H808.93Z"/><path class="cls-11" d="M871.43,500.83l-3.72,17.75H855l9.78-46.15h19.84c9.85,0,15,4.89,15,12.12,0,6.28-3.76,10.53-9.5,12.16,2.47,1.08,5.46,3.89,3.9,11.4-1,4.81-1.76,8.47-1.55,10.47h-12.2c-.27-2,.09-5.25,1.27-10.89.94-4.36.5-6.86-4.07-6.86Zm1.91-9h5.89c4.39,0,7.45-1.75,7.45-5.88,0-2.77-1.46-4.57-5.4-4.57h-5.74Z"/><path class="cls-11" d="M922.87,472.43l-9.78,46.15H900.23L910,472.43Z"/><path class="cls-11" d="M969.74,65.5a4.42,4.42,0,0,0-4.18-3H933.12a4.45,4.45,0,0,0-4.19,3L922.8,83.16v23.59a3,3,0,0,0,3,3h3a2.94,2.94,0,0,0,2.94-3v-2.94H967v2.94a3,3,0,0,0,3,3h2.95a2.94,2.94,0,0,0,3-3V83.16ZM933.12,95a4.43,4.43,0,1,1,4.42-4.42A4.42,4.42,0,0,1,933.12,95Zm32.44,0A4.43,4.43,0,1,1,970,90.54,4.42,4.42,0,0,1,965.56,95ZM928.7,80.21l4.42-13.27h32.44L970,80.21Z"/><path class="cls-11" d="M976.07,70.21c1.08,2.81,2.89,2.82,4,0L993,38.65c1.14-2.79-.1-3.91-2.76-2.51L960.06,52.06c-2.66,1.4-2.47,3.19.43,4l11.32,3.18Z"/><path class="cls-10" d="M818.72,62.88h12.73l-4.06,19c4-4.6,12.38-12.79,18.15-19h15.22L840.13,82.35,851.82,109H838l-7.6-19.16-5.65,4.69-3,14.47H808.93Z"/><path class="cls-10" d="M871.43,91.28,867.71,109H855l9.78-46.14h19.84c9.85,0,15,4.89,15,12.12,0,6.28-3.76,10.52-9.5,12.16,2.47,1.08,5.46,3.88,3.9,11.39-1,4.82-1.76,8.47-1.55,10.47h-12.2c-.27-2,.09-5.24,1.27-10.89.94-4.36.5-6.85-4.07-6.85Zm1.91-9h5.89c4.39,0,7.45-1.74,7.45-5.87,0-2.77-1.46-4.58-5.4-4.58h-5.74Z"/><path class="cls-10" d="M922.87,62.88,913.09,109H900.23L910,62.88Z"/><rect class="cls-12" width="596" height="841.94"/><path class="cls-1" d="M413,421.77a7.42,7.42,0,0,0-7-5H351.73a7.42,7.42,0,0,0-7,5l-10.26,29.55v39.46a4.94,4.94,0,0,0,4.93,4.93h4.93a4.93,4.93,0,0,0,4.94-4.93v-4.93h59.19v4.93a4.94,4.94,0,0,0,4.94,4.93h4.93a4.92,4.92,0,0,0,4.93-4.93V451.32Zm-61.27,49.28a7.4,7.4,0,1,1,7.4-7.4A7.4,7.4,0,0,1,351.73,471.05Zm54.27,0a7.4,7.4,0,1,1,7.4-7.4A7.39,7.39,0,0,1,406,471.05Zm-61.67-24.67,7.4-22.2H406l7.4,22.2Z"/><path class="cls-1" d="M423.58,429.65c1.82,4.69,4.84,4.72,6.74.07L452,376.85c1.91-4.66-.16-6.53-4.61-4.19L396.8,399.28c-4.44,2.34-4.13,5.34.71,6.7l19,5.32Z"/><path class="cls-1" d="M160.35,417.38h21.3l-6.78,31.78c6.62-7.7,20.7-21.41,30.36-31.78h25.45L196.18,450l19.55,44.63H192.57l-12.7-32.07-9.46,7.85-5.06,24.22H144Z"/><path class="cls-1" d="M248.54,464.89l-6.23,29.69H221.06l16.37-77.2h33.18c16.49,0,25.1,8.18,25.1,20.28,0,10.5-6.28,17.6-15.9,20.34,4.14,1.81,9.14,6.5,6.53,19.06-1.71,8.06-2.94,14.17-2.58,17.52H263.34c-.45-3.33.15-8.78,2.13-18.22,1.56-7.3.83-11.47-6.82-11.47Zm3.19-15h9.85c7.35,0,12.47-2.91,12.47-9.82,0-4.64-2.44-7.66-9-7.66h-9.59Z"/><path class="cls-1" d="M334.6,417.38l-16.37,77.2H296.71l16.37-77.2Z"/><text class="cls-13" transform="translate(225 38.82)">P<tspan class="cls-14" x="11.14" y="0">R</tspan><tspan class="cls-15" x="22.6" y="0">OPOSITION 1</tspan></text><rect class="cls-12" x="4020" width="596" height="841.94"/><text class="cls-13" transform="translate(4251 44.82)">P<tspan class="cls-14" x="11.14" y="0">R</tspan><tspan class="cls-15" x="22.6" y="0">OPOSITION 4</tspan></text><rect class="cls-1" x="4103" y="365.94" width="429" height="99"/><text class="cls-16" transform="translate(4134.24 443.58)"><tspan class="cls-17">KRI</tspan><tspan class="cls-18" x="103.09" y="0">A</tspan><tspan class="cls-19" x="143.01" y="0">UTO</tspan></text><path class="cls-12" d="M4490.64,409.8,4484.41,392a12.16,12.16,0,0,0-11.45-8.13h-32.58a12.15,12.15,0,0,0-11.46,8.12l-6.24,17.83a12.13,12.13,0,0,0-5.45,10.14v21.52a6.07,6.07,0,1,0,12.13,0v-3.82s16,.79,27.3.8,27.29-.78,27.29-.78v3.82a6.07,6.07,0,1,0,12.13,0V419.94A12.14,12.14,0,0,0,4490.64,409.8Zm-59.47-5.93,3.48-9.92a6.06,6.06,0,0,1,5.73-4.06H4473a6.07,6.07,0,0,1,5.73,4.06l3.47,9.93a2.16,2.16,0,0,1-2.39,2.87,158.25,158.25,0,0,0-46.2,0A2.17,2.17,0,0,1,4431.17,403.87Zm-.3,22.41a4.55,4.55,0,1,1,4.55-4.55A4.55,4.55,0,0,1,4430.87,426.28Zm34.88-3h-18.2a3,3,0,1,1,0-6.07h18.19a3,3,0,0,1,0,6.07Zm16.68,3a4.55,4.55,0,1,1,4.55-4.55A4.55,4.55,0,0,1,4482.43,426.3Z"/><rect class="cls-1" x="4767" width="596" height="841.94"/><rect class="cls-1" x="4910.06" y="155.15" width="339.94" height="78.45"/><text class="cls-20" transform="translate(4934.82 216.67)"><tspan class="cls-17">KRI</tspan><tspan class="cls-21" x="81.69" y="0">A</tspan><tspan class="cls-22" x="113.32" y="0">UTO</tspan></text><path class="cls-23" d="M5217.23,189.9l-4.94-14.13a9.64,9.64,0,0,0-9.08-6.44H5177.4a9.64,9.64,0,0,0-9.08,6.43l-4.95,14.13a9.63,9.63,0,0,0-4.31,8V215a4.81,4.81,0,0,0,9.61,0v-3s12.69.63,21.63.63,21.63-.62,21.63-.62v3a4.81,4.81,0,0,0,9.61,0V197.94A9.65,9.65,0,0,0,5217.23,189.9Zm-47.13-4.69,2.76-7.87a4.82,4.82,0,0,1,4.54-3.21h25.81a4.81,4.81,0,0,1,4.54,3.22l2.75,7.86a1.72,1.72,0,0,1-1.9,2.28,125.17,125.17,0,0,0-36.6,0A1.73,1.73,0,0,1,5170.1,185.21Zm-.23,17.75a3.61,3.61,0,1,1,3.6-3.6A3.6,3.6,0,0,1,5169.87,203Zm27.63-2.39h-14.41a2.4,2.4,0,1,1,0-4.8h14.42a2.41,2.41,0,0,1,0,4.81Zm13.22,2.41a3.61,3.61,0,1,1,3.61-3.61A3.61,3.61,0,0,1,5210.72,203Z"/><rect class="cls-1" x="4910.06" y="273.8" width="339.94" height="78.45"/><text class="cls-24" transform="translate(4934.82 335.32)"><tspan class="cls-17">KRI</tspan><tspan class="cls-21" x="81.69" y="0">A</tspan><tspan class="cls-22" x="113.32" y="0">UTO</tspan></text><path d="M5217.23,308.55l-4.94-14.13a9.64,9.64,0,0,0-9.08-6.44H5177.4a9.63,9.63,0,0,0-9.08,6.43l-4.95,14.13a9.63,9.63,0,0,0-4.31,8v17.05a4.81,4.81,0,1,0,9.61,0v-3s12.69.64,21.63.64,21.63-.62,21.63-.62v3a4.81,4.81,0,1,0,9.61,0V316.59A9.65,9.65,0,0,0,5217.23,308.55Zm-47.13-4.69,2.76-7.87a4.79,4.79,0,0,1,4.54-3.21h25.81a4.81,4.81,0,0,1,4.54,3.21l2.75,7.87a1.72,1.72,0,0,1-1.9,2.28,125.63,125.63,0,0,0-36.6,0A1.72,1.72,0,0,1,5170.1,303.86Zm-.23,17.75a3.61,3.61,0,1,1,3.6-3.6A3.6,3.6,0,0,1,5169.87,321.61Zm27.63-2.39h-14.41a2.4,2.4,0,1,1,0-4.8h14.42a2.41,2.41,0,0,1,0,4.81Zm13.22,2.41a3.61,3.61,0,1,1,3.61-3.61A3.61,3.61,0,0,1,5210.72,321.63Z"/><rect class="cls-1" x="4910.06" y="392.45" width="339.94" height="78.45"/><text class="cls-20" transform="translate(4934.82 453.97)"><tspan class="cls-17">KRI</tspan><tspan class="cls-21" x="81.69" y="0">A</tspan><tspan class="cls-22" x="113.32" y="0">UTO</tspan></text><path class="cls-12" d="M5217.23,427.2l-4.94-14.13a9.64,9.64,0,0,0-9.08-6.44H5177.4a9.63,9.63,0,0,0-9.08,6.43l-4.95,14.13a9.6,9.6,0,0,0-4.31,8v17a4.81,4.81,0,1,0,9.61,0v-3s12.69.63,21.63.64,21.63-.62,21.63-.62v3a4.81,4.81,0,1,0,9.61,0V435.24A9.65,9.65,0,0,0,5217.23,427.2Zm-47.13-4.69,2.76-7.87a4.82,4.82,0,0,1,4.54-3.22h25.81a4.82,4.82,0,0,1,4.54,3.22l2.75,7.87a1.72,1.72,0,0,1-1.9,2.28,124.71,124.71,0,0,0-36.6,0A1.72,1.72,0,0,1,5170.1,422.51Zm-.23,17.75a3.61,3.61,0,1,1,3.6-3.61A3.6,3.6,0,0,1,5169.87,440.26Zm27.63-2.39h-14.41a2.41,2.41,0,1,1,0-4.81h14.42a2.41,2.41,0,0,1,0,4.81Zm13.22,2.4a3.61,3.61,0,1,1,3.61-3.6A3.6,3.6,0,0,1,5210.72,440.27Z"/><rect class="cls-1" x="4910.06" y="511.1" width="339.94" height="78.45"/><text class="cls-25" transform="translate(4934.82 572.62)"><tspan class="cls-17">KRI</tspan><tspan class="cls-21" x="81.69" y="0">A</tspan><tspan class="cls-22" x="113.32" y="0">UTO</tspan></text><path class="cls-12" d="M5217.23,545.85l-4.94-14.13a9.64,9.64,0,0,0-9.08-6.44H5177.4a9.61,9.61,0,0,0-9.08,6.43l-4.95,14.13a9.6,9.6,0,0,0-4.31,8v17a4.81,4.81,0,1,0,9.61,0v-3s12.69.63,21.63.64,21.63-.62,21.63-.62v3a4.81,4.81,0,1,0,9.61,0V553.89A9.65,9.65,0,0,0,5217.23,545.85Zm-47.13-4.7,2.76-7.86a4.82,4.82,0,0,1,4.54-3.22h25.81a4.81,4.81,0,0,1,4.54,3.22l2.75,7.87a1.73,1.73,0,0,1-1.9,2.28,124.71,124.71,0,0,0-36.6,0A1.72,1.72,0,0,1,5170.1,541.15Zm-.23,17.76a3.61,3.61,0,1,1,3.6-3.61A3.6,3.6,0,0,1,5169.87,558.91Zm27.63-2.4h-14.41a2.41,2.41,0,1,1,0-4.81h14.42a2.4,2.4,0,1,1,0,4.8Zm13.22,2.41a3.61,3.61,0,1,1,3.61-3.6A3.6,3.6,0,0,1,5210.72,558.92Z"/><text class="cls-25" transform="translate(4936.67 686.56)"><tspan class="cls-17">KRI</tspan><tspan class="cls-26" x="81.69" y="0">A</tspan><tspan class="cls-27" x="113.32" y="0">UTO</tspan></text><path class="cls-12" d="M5219.08,659.79l-4.94-14.13a9.61,9.61,0,0,0-9.07-6.44h-25.82a9.62,9.62,0,0,0-9.07,6.43l-5,14.13a9.64,9.64,0,0,0-4.32,8v17.05a4.81,4.81,0,1,0,9.62,0v-3s12.69.64,21.62.64,21.63-.62,21.63-.62v3a4.81,4.81,0,1,0,9.61,0v-17A9.63,9.63,0,0,0,5219.08,659.79ZM5172,655.1l2.75-7.87a4.82,4.82,0,0,1,4.54-3.22h25.82a4.82,4.82,0,0,1,4.53,3.22l2.75,7.87a1.72,1.72,0,0,1-1.89,2.28,125.7,125.7,0,0,0-36.61,0A1.71,1.71,0,0,1,5172,655.1Zm-.24,17.75a3.61,3.61,0,1,1,3.61-3.6A3.61,3.61,0,0,1,5171.72,672.85Zm27.64-2.39h-14.42a2.41,2.41,0,0,1,0-4.81h14.42a2.41,2.41,0,0,1,0,4.81Zm13.21,2.4a3.6,3.6,0,1,1,3.61-3.6A3.6,3.6,0,0,1,5212.57,672.86Z"/><rect class="cls-12" x="6948" width="596" height="841.94"/><text class="cls-13" transform="translate(7179 44.82)">P<tspan class="cls-14" x="11.14" y="0">R</tspan><tspan class="cls-15" x="22.6" y="0">OPOSITION 6</tspan></text><text class="cls-28" transform="translate(7040.27 449.4)"><tspan class="cls-17">KRI</tspan><tspan class="cls-29" x="155.85" y="0">A</tspan><tspan class="cls-22" x="216.2" y="0">UTO</tspan></text><path class="cls-30" d="M7466.87,427.27c18.86-8.58,31.71-28.91,30.62-51.57-1.37-28.68-24.54-50.23-51.76-48.13-22.24,1.72-40.29,18.69-45.41,40.49,6.56-17.41,22.15-30.35,40.9-31.8,25.69-2,47.56,18.35,48.86,45.43a51.16,51.16,0,0,1-23.21,45.58Z"/><path class="cls-30" d="M7461.87,409.65c12.06-5.49,20.28-18.49,19.58-33-.88-18.35-15.7-32.13-33.11-30.79-14.22,1.1-25.77,12-29,25.9,4.19-11.14,14.17-19.41,26.16-20.34,16.43-1.27,30.42,11.74,31.25,29.06a32.73,32.73,0,0,1-14.84,29.15Z"/><path class="cls-30" d="M7455.5,391.45a16.46,16.46,0,0,0,9.38-15.79c-.42-8.78-7.52-15.38-15.85-14.74a15.86,15.86,0,0,0-13.91,12.4,14.79,14.79,0,0,1,12.53-9.73c7.86-.61,14.56,5.62,15,13.91a15.65,15.65,0,0,1-7.11,13.95Z"/><rect class="cls-1" x="7695" width="596" height="841.94"/><text class="cls-31" transform="translate(7826.95 284.29)"><tspan class="cls-17">KRI</tspan><tspan class="cls-32" x="113.2" y="0">A</tspan><tspan class="cls-22" x="157.04" y="0">UTO</tspan></text><path class="cls-33" d="M8136.71,268.22c13.7-6.23,23-21,22.24-37.45-1-20.84-17.82-36.49-37.59-35-16.16,1.24-29.27,13.57-33,29.41,4.76-12.65,16.08-22.05,29.7-23.1,18.66-1.44,34.55,13.33,35.49,33a37.14,37.14,0,0,1-16.86,33.11Z"/><path class="cls-33" d="M8133.08,255.42a25,25,0,0,0,14.22-23.95c-.63-13.33-11.4-23.34-24-22.36-10.34.8-18.72,8.68-21.1,18.81a22.46,22.46,0,0,1,19-14.78c11.94-.92,22.1,8.53,22.7,21.11a23.77,23.77,0,0,1-10.78,21.17Z"/><path class="cls-33" d="M8128.45,242.21a12,12,0,0,0,6.82-11.47c-.31-6.38-5.46-11.17-11.52-10.71a11.52,11.52,0,0,0-10.1,9,10.75,10.75,0,0,1,9.1-7.07,10.29,10.29,0,0,1,10.87,10.1,11.38,11.38,0,0,1-5.17,10.14Z"/><text class="cls-34" transform="translate(7826.95 455.38)"><tspan class="cls-17">KRI</tspan><tspan class="cls-32" x="113.2" y="0">A</tspan><tspan class="cls-22" x="157.04" y="0">UTO</tspan></text><path class="cls-35" d="M8136.71,439.31c13.7-6.23,23-21,22.24-37.45-1-20.84-17.82-36.49-37.59-35-16.16,1.25-29.27,13.58-33,29.41,4.76-12.65,16.08-22.05,29.7-23.1,18.66-1.44,34.55,13.33,35.49,33a37.13,37.13,0,0,1-16.86,33.1Z"/><path class="cls-35" d="M8133.08,426.52a25,25,0,0,0,14.22-24c-.63-13.33-11.4-23.34-24-22.36-10.34.8-18.72,8.68-21.1,18.81a22.44,22.44,0,0,1,19-14.77c11.94-.92,22.1,8.52,22.7,21.1a23.79,23.79,0,0,1-10.78,21.18Z"/><path class="cls-35" d="M8128.45,413.3a12,12,0,0,0,6.82-11.47c-.31-6.38-5.46-11.17-11.52-10.7a11.5,11.5,0,0,0-10.1,9,10.75,10.75,0,0,1,9.1-7.07,10.29,10.29,0,0,1,10.87,10.1,11.38,11.38,0,0,1-5.17,10.14Z"/><text class="cls-36" transform="translate(7826.95 626.48)"><tspan class="cls-17">KRI</tspan><tspan class="cls-32" x="113.2" y="0">A</tspan><tspan class="cls-22" x="157.04" y="0">UTO</tspan></text><path class="cls-33" d="M8136.71,610.41c13.7-6.24,23-21,22.24-37.46-1-20.83-17.82-36.48-37.59-35-16.16,1.25-29.27,13.58-33,29.41,4.76-12.65,16.08-22,29.7-23.1,18.66-1.44,34.55,13.33,35.49,33a37.16,37.16,0,0,1-16.86,33.11Z"/><path class="cls-33" d="M8133.08,597.61a25,25,0,0,0,14.22-24c-.63-13.32-11.4-23.33-24-22.36-10.34.8-18.72,8.69-21.1,18.81a22.44,22.44,0,0,1,19-14.77c11.94-.92,22.1,8.53,22.7,21.1a23.79,23.79,0,0,1-10.78,21.18Z"/><path class="cls-33" d="M8128.45,584.39a12,12,0,0,0,6.82-11.47c-.31-6.38-5.46-11.17-11.52-10.7a11.51,11.51,0,0,0-10.1,9,10.75,10.75,0,0,1,9.1-7.07,10.29,10.29,0,0,1,10.87,10.1,11.37,11.37,0,0,1-5.17,10.14Z"/><rect class="cls-12" x="8394" width="596" height="841.94"/><text class="cls-13" transform="translate(8625 44.82)">P<tspan class="cls-14" x="11.14" y="0">R</tspan><tspan class="cls-15" x="22.6" y="0">OPOSITION 7</tspan></text><text class="cls-37" transform="translate(8519.68 464.87)">KRI<tspan class="cls-38" x="96.92" y="0">A</tspan><tspan class="cls-39" x="138.39" y="0">U</tspan><tspan class="cls-40" x="184.36" y="0">T</tspan><tspan x="217.33" y="0">O</tspan></text><text class="cls-41" transform="translate(8522.78 495.67)">vehicle tr<tspan class="cls-42" x="94.83" y="0">a</tspan><tspan x="107.96" y="0">cking solutions</tspan></text><path class="cls-1" d="M8826.82,443.23a13.52,13.52,0,1,0,13.52,13.52A13.52,13.52,0,0,0,8826.82,443.23ZM8857,453.37a30.41,30.41,0,0,0-26.84-26.83v-7h-6.76v7a30.4,30.4,0,0,0-26.84,26.83h-7v6.76h7A30.4,30.4,0,0,0,8823.44,487v7h6.76v-7A30.41,30.41,0,0,0,8857,460.13h7v-6.76Zm-30.22,27a23.66,23.66,0,1,1,23.66-23.66A23.66,23.66,0,0,1,8826.82,480.41Z"/><rect class="cls-1" x="9141" width="596" height="841.94"/><text class="cls-43" transform="translate(9266.68 152.87)">KRI<tspan class="cls-38" x="96.92" y="0">A</tspan><tspan class="cls-39" x="138.39" y="0">U</tspan><tspan class="cls-40" x="184.36" y="0">T</tspan><tspan x="217.33" y="0">O</tspan></text><text class="cls-44" transform="translate(9269.78 183.67)">vehicle tr<tspan class="cls-42" x="94.83" y="0">a</tspan><tspan x="107.96" y="0">cking solutions</tspan></text><path class="cls-12" d="M9573.82,131.23a13.52,13.52,0,1,0,13.52,13.52A13.52,13.52,0,0,0,9573.82,131.23ZM9604,141.37a30.41,30.41,0,0,0-26.84-26.83v-7h-6.76v7a30.4,30.4,0,0,0-26.84,26.83h-7v6.76h7A30.4,30.4,0,0,0,9570.44,175v7h6.76v-7A30.41,30.41,0,0,0,9604,148.13h7v-6.76Zm-30.22,27a23.66,23.66,0,1,1,23.66-23.66A23.66,23.66,0,0,1,9573.82,168.41Z"/><text class="cls-45" transform="translate(9266.68 333.54)">KRI<tspan class="cls-38" x="96.92" y="0">A</tspan><tspan class="cls-39" x="138.39" y="0">U</tspan><tspan class="cls-40" x="184.36" y="0">T</tspan><tspan x="217.33" y="0">O</tspan></text><text class="cls-46" transform="translate(9269.78 364.34)">vehicle tr<tspan class="cls-42" x="94.83" y="0">a</tspan><tspan x="107.96" y="0">cking solutions</tspan></text><path d="M9573.82,311.9a13.52,13.52,0,1,0,13.52,13.52A13.52,13.52,0,0,0,9573.82,311.9ZM9604,322a30.42,30.42,0,0,0-26.84-26.84v-7h-6.76v7A30.42,30.42,0,0,0,9543.6,322h-7v6.76h7a30.41,30.41,0,0,0,26.84,26.84v7h6.76v-7A30.42,30.42,0,0,0,9604,328.8h7V322Zm-30.22,27a23.66,23.66,0,1,1,23.66-23.66A23.66,23.66,0,0,1,9573.82,349.08Z"/><text class="cls-43" transform="translate(9266.68 514.2)">KRI<tspan class="cls-38" x="96.92" y="0">A</tspan><tspan class="cls-39" x="138.39" y="0">U</tspan><tspan class="cls-40" x="184.36" y="0">T</tspan><tspan x="217.33" y="0">O</tspan></text><text class="cls-47" transform="translate(9269.78 545.01)">vehicle tr<tspan class="cls-42" x="94.83" y="0">a</tspan><tspan x="107.96" y="0">cking solutions</tspan></text><path class="cls-23" d="M9573.82,492.57a13.52,13.52,0,1,0,13.52,13.52A13.52,13.52,0,0,0,9573.82,492.57ZM9604,502.71a30.42,30.42,0,0,0-26.84-26.84v-7h-6.76v7a30.41,30.41,0,0,0-26.84,26.84h-7v6.76h7a30.42,30.42,0,0,0,26.84,26.84v7h6.76v-7A30.42,30.42,0,0,0,9604,509.47h7v-6.76Zm-30.22,27a23.66,23.66,0,1,1,23.66-23.66A23.66,23.66,0,0,1,9573.82,529.75Z"/><text class="cls-48" transform="translate(9266.68 694.87)">KRI<tspan class="cls-38" x="96.92" y="0">A</tspan><tspan class="cls-39" x="138.39" y="0">U</tspan><tspan class="cls-40" x="184.36" y="0">T</tspan><tspan x="217.33" y="0">O</tspan></text><text class="cls-44" transform="translate(9269.78 725.67)">vehicle tr<tspan class="cls-42" x="94.83" y="0">a</tspan><tspan x="107.96" y="0">cking solutions</tspan></text><path class="cls-12" d="M9573.82,673.23a13.52,13.52,0,1,0,13.52,13.52A13.52,13.52,0,0,0,9573.82,673.23ZM9604,683.37a30.41,30.41,0,0,0-26.84-26.83v-7h-6.76v7a30.4,30.4,0,0,0-26.84,26.83h-7v6.76h7A30.4,30.4,0,0,0,9570.44,717v7h6.76v-7A30.41,30.41,0,0,0,9604,690.13h7v-6.76Zm-30.22,27a23.66,23.66,0,1,1,23.66-23.66A23.66,23.66,0,0,1,9573.82,710.41Z"/></g><rect class="cls-12" x="1251" width="596" height="841.94"/><text class="cls-13" transform="translate(1482 44.82)">P<tspan class="cls-14" x="11.14" y="0">R</tspan><tspan class="cls-15" x="22.6" y="0">OPOSITION 2</tspan></text><path class="cls-1" d="M1698.27,422.84c1.61,3.62,4,3.52,5.3-.21l15-42.39c1.32-3.73-.37-5.12-3.78-3.11L1676.06,400c-3.41,2-3,4.36.81,5.24l15.1,3.45Z"/><text class="cls-49" transform="translate(1379.5 463.24) scale(1.01 1)">KRI<tspan class="cls-50" x="115.64" y="0">A</tspan><tspan x="165.11" y="0">U</tspan><tspan class="cls-51" x="219.96" y="0">T</tspan><tspan x="259.3" y="0">O</tspan></text><text class="cls-52" transform="translate(1383.33 492)"><tspan xml:space="preserve">vehicle  tr</tspan><tspan class="cls-53" x="119.12" y="0">a</tspan><tspan x="133.36" y="0" xml:space="preserve">cking  solutions</tspan></text><rect class="cls-1" x="1914" width="596" height="841.94"/><path class="cls-11" d="M2318,71.75c1.14,2.56,2.82,2.5,3.76-.15l10.63-30.09c.94-2.65-.27-3.63-2.68-2.2l-27.48,16.23c-2.42,1.42-2.16,3.09.58,3.72l10.72,2.45Z"/><text class="cls-54" transform="translate(2091.78 100.42) scale(1.01 1)">KRI<tspan class="cls-55" x="82.07" y="0">A</tspan><tspan x="117.18" y="0">U</tspan><tspan class="cls-56" x="156.1" y="0">T</tspan><tspan x="184.02" y="0">O</tspan></text><path class="cls-2" d="M2318,196.75c1.14,2.56,2.82,2.5,3.76-.15l10.63-30.09c.94-2.65-.27-3.63-2.68-2.2l-27.48,16.23c-2.42,1.42-2.16,3.09.58,3.72l10.72,2.45Z"/><text class="cls-57" transform="translate(2091.78 225.42) scale(1.01 1)">KRI<tspan class="cls-55" x="82.07" y="0">A</tspan><tspan x="117.18" y="0">U</tspan><tspan class="cls-56" x="156.1" y="0">T</tspan><tspan x="184.02" y="0">O</tspan></text><path d="M2318,333.75c1.14,2.56,2.82,2.5,3.76-.15l10.63-30.09c.94-2.65-.27-3.63-2.68-2.2l-27.48,16.23c-2.42,1.42-2.16,3.09.58,3.72l10.72,2.45Z"/><text class="cls-58" transform="translate(2091.78 362.42) scale(1.01 1)">KRI<tspan class="cls-55" x="82.07" y="0">A</tspan><tspan x="117.18" y="0">U</tspan><tspan class="cls-56" x="156.1" y="0">T</tspan><tspan x="184.02" y="0">O</tspan></text><path class="cls-9" d="M2318,466.75c1.14,2.56,2.82,2.5,3.76-.15l10.63-30.09c.94-2.65-.27-3.63-2.68-2.2l-27.48,16.23c-2.42,1.42-2.16,3.09.58,3.72l10.72,2.45Z"/><text class="cls-59" transform="translate(2091.78 495.42) scale(1.01 1)">KRI<tspan class="cls-55" x="82.07" y="0">A</tspan><tspan x="117.18" y="0">U</tspan><tspan class="cls-56" x="156.1" y="0">T</tspan><tspan x="184.02" y="0">O</tspan></text><path class="cls-3" d="M2318,609.75c1.14,2.56,2.82,2.5,3.76-.15l10.63-30.09c.94-2.65-.27-3.63-2.68-2.2l-27.48,16.23c-2.42,1.42-2.16,3.09.58,3.72l10.72,2.45Z"/><text class="cls-60" transform="translate(2091.78 638.42) scale(1.01 1)">KRI<tspan class="cls-55" x="82.07" y="0">A</tspan><tspan x="117.18" y="0">U</tspan><tspan class="cls-56" x="156.1" y="0">T</tspan><tspan x="184.02" y="0">O</tspan></text><text class="cls-61" transform="translate(2094.5 658.83)"><tspan xml:space="preserve">vehicle  tr</tspan><tspan class="cls-62" x="84.54" y="0">a</tspan><tspan class="cls-63" x="94.64" y="0" xml:space="preserve">cking  solutions</tspan></text><text class="cls-61" transform="translate(2094.5 790.83)"><tspan xml:space="preserve">vehicle  tr</tspan><tspan class="cls-62" x="84.54" y="0">a</tspan><tspan class="cls-63" x="94.64" y="0" xml:space="preserve">cking  solutions</tspan></text><text class="cls-61" transform="translate(2094.5 510.83)"><tspan xml:space="preserve">vehicle  tr</tspan><tspan class="cls-62" x="84.54" y="0">a</tspan><tspan class="cls-63" x="94.64" y="0" xml:space="preserve">cking  solutions</tspan></text><text class="cls-61" transform="translate(2094.5 380.83)"><tspan xml:space="preserve">vehicle  tr</tspan><tspan class="cls-62" x="84.54" y="0">a</tspan><tspan class="cls-63" x="94.64" y="0" xml:space="preserve">cking  solutions</tspan></text><text class="cls-61" transform="translate(2094.5 241.83)"><tspan xml:space="preserve">vehicle  tr</tspan><tspan class="cls-62" x="84.54" y="0">a</tspan><tspan class="cls-63" x="94.64" y="0" xml:space="preserve">cking  solutions</tspan></text><text class="cls-61" transform="translate(2094.5 118.83)"><tspan xml:space="preserve">vehicle  tr</tspan><tspan class="cls-62" x="84.54" y="0">a</tspan><tspan class="cls-63" x="94.64" y="0" xml:space="preserve">cking  solutions</tspan></text><path class="cls-64" d="M2318,744.75c1.14,2.56,2.82,2.5,3.76-.15l10.63-30.09c.94-2.65-.27-3.63-2.68-2.2l-27.48,16.23c-2.42,1.42-2.16,3.09.58,3.72l10.72,2.45Z"/><path class="cls-65" d="M2123.63,772.28a1,1,0,0,1-.17.57,1.13,1.13,0,0,1-.61.41,5.81,5.81,0,0,1-1.25.25c-.53,0-1.19.08-2,.08a19.08,19.08,0,0,1-2.74-.14,2.74,2.74,0,0,1-1.21-.44,2.15,2.15,0,0,1-.57-.7l-11.46-17.87v17.87a.89.89,0,0,1-.18.56,1.34,1.34,0,0,1-.61.39,5.47,5.47,0,0,1-1.17.25c-.49,0-1.12.08-1.88.08s-1.37,0-1.86-.08a5.29,5.29,0,0,1-1.19-.25,1.55,1.55,0,0,1-.63-.39.85.85,0,0,1-.19-.56V736.83a.85.85,0,0,1,.19-.56,1.44,1.44,0,0,1,.63-.38,7,7,0,0,1,1.19-.23,19.47,19.47,0,0,1,3.74,0,7.31,7.31,0,0,1,1.17.23,1.26,1.26,0,0,1,.61.38.89.89,0,0,1,.18.56v16l11.11-16a2,2,0,0,1,.5-.63,2,2,0,0,1,.76-.39,5.56,5.56,0,0,1,1.2-.21c.49,0,1.12-.06,1.88-.06a17.18,17.18,0,0,1,1.94.09,5.63,5.63,0,0,1,1.21.25,1.31,1.31,0,0,1,.63.39.85.85,0,0,1,.18.53,2.19,2.19,0,0,1-.27,1,17.13,17.13,0,0,1-1,1.66L2111.37,753l11.35,17a12.12,12.12,0,0,1,.77,1.59A2.08,2.08,0,0,1,2123.63,772.28Z"/><path class="cls-66" d="M2156.9,772.43a1.27,1.27,0,0,1-.11.54,1,1,0,0,1-.56.36,5,5,0,0,1-1.29.2c-.57,0-1.34.06-2.32.06-.82,0-1.47,0-2-.06a4.31,4.31,0,0,1-1.16-.21,1.35,1.35,0,0,1-.6-.41,2,2,0,0,1-.29-.6l-3.41-8.41c-.41-.95-.81-1.79-1.2-2.53a7.86,7.86,0,0,0-1.3-1.85,4.65,4.65,0,0,0-1.66-1.12,5.8,5.8,0,0,0-2.17-.38h-2.4v14.35a.86.86,0,0,1-.19.53,1.35,1.35,0,0,1-.63.37,6.21,6.21,0,0,1-1.18.24c-.49,0-1.11.08-1.87.08s-1.37,0-1.86-.08a6,6,0,0,1-1.19-.24,1.22,1.22,0,0,1-.62-.37.84.84,0,0,1-.17-.53V738.16a2.29,2.29,0,0,1,.66-1.84,2.39,2.39,0,0,1,1.62-.57h9.82c1,0,1.82,0,2.47.06s1.23.08,1.76.14a16.24,16.24,0,0,1,4.12,1.11,9.86,9.86,0,0,1,3.1,2.05,8.47,8.47,0,0,1,2,3,10.86,10.86,0,0,1,.68,4,11.32,11.32,0,0,1-.49,3.45,8.6,8.6,0,0,1-1.42,2.78,9.25,9.25,0,0,1-2.31,2.13,12.76,12.76,0,0,1-3.14,1.45,9.71,9.71,0,0,1,1.6,1,8.2,8.2,0,0,1,1.4,1.42,13.18,13.18,0,0,1,1.25,1.89,24.66,24.66,0,0,1,1.14,2.4l3.2,7.42c.29.74.49,1.28.59,1.62A3.43,3.43,0,0,1,2156.9,772.43ZM2147,746.87a5.57,5.57,0,0,0-.85-3.15,4.61,4.61,0,0,0-2.78-1.8,10.6,10.6,0,0,0-1.34-.23,18.06,18.06,0,0,0-2.06-.09h-3.46v10.68h3.93a9.53,9.53,0,0,0,2.87-.39,5.68,5.68,0,0,0,2.05-1.11,4.4,4.4,0,0,0,1.23-1.7A5.62,5.62,0,0,0,2147,746.87Z"/><path class="cls-67" d="M2170.3,772.37a.8.8,0,0,1-.19.53,1.35,1.35,0,0,1-.63.37,5.92,5.92,0,0,1-1.17.24c-.49,0-1.12.08-1.88.08s-1.36,0-1.86-.08a6.17,6.17,0,0,1-1.19-.24,1.35,1.35,0,0,1-.63-.37.8.8,0,0,1-.19-.53V736.8a.8.8,0,0,1,.19-.53,1.41,1.41,0,0,1,.65-.38,7.47,7.47,0,0,1,1.18-.23,15.72,15.72,0,0,1,1.85-.09,16,16,0,0,1,1.88.09,6.88,6.88,0,0,1,1.17.23,1.44,1.44,0,0,1,.63.38.8.8,0,0,1,.19.53Z"/><path class="cls-68" d="M2209.65,770.57a10.72,10.72,0,0,1,.44,1.66,1,1,0,0,1-.24.91,1.85,1.85,0,0,1-1.14.38c-.55.05-1.3.07-2.26.07s-1.77,0-2.33,0a6.28,6.28,0,0,1-1.27-.17,1.15,1.15,0,0,1-.62-.37,1.93,1.93,0,0,1-.29-.61l-2.55-7.57h-14.25l-2.41,7.37a2.53,2.53,0,0,1-.3.68,1.29,1.29,0,0,1-.62.44,4.42,4.42,0,0,1-1.2.21q-.78.06-2,.06c-.9,0-1.6,0-2.11-.08a1.61,1.61,0,0,1-1.06-.43,1.13,1.13,0,0,1-.2-.94,9,9,0,0,1,.44-1.63l11.7-33.42a2.6,2.6,0,0,1,.41-.8,1.4,1.4,0,0,1,.74-.47,6,6,0,0,1,1.43-.2c.6,0,1.4,0,2.4,0s2.07,0,2.76,0a7.22,7.22,0,0,1,1.59.2,1.58,1.58,0,0,1,.83.48,3.14,3.14,0,0,1,.42.88Zm-17.42-27.63h0l-5.36,16h10.76Z"/><path class="cls-69" d="M2244.89,759.39a17.45,17.45,0,0,1-1,6.2,12.21,12.21,0,0,1-3,4.63,13.18,13.18,0,0,1-4.92,2.88,21.08,21.08,0,0,1-6.75,1,21.61,21.61,0,0,1-6.42-.89,12.44,12.44,0,0,1-4.8-2.69,11.74,11.74,0,0,1-3-4.5,17.55,17.55,0,0,1-1-6.3V736.8a.85.85,0,0,1,.18-.53,1.24,1.24,0,0,1,.63-.38,7.24,7.24,0,0,1,1.18-.23,16,16,0,0,1,1.88-.09,15.72,15.72,0,0,1,1.85.09,7.09,7.09,0,0,1,1.17.23,1.44,1.44,0,0,1,.63.38.8.8,0,0,1,.19.53V759a12.13,12.13,0,0,0,.56,3.88,7.08,7.08,0,0,0,1.6,2.73,6.65,6.65,0,0,0,2.49,1.61,9.17,9.17,0,0,0,3.24.54,9,9,0,0,0,3.25-.55,6.53,6.53,0,0,0,2.44-1.62,7.28,7.28,0,0,0,1.53-2.62,10.52,10.52,0,0,0,.55-3.54V736.8a.9.9,0,0,1,.17-.53,1.35,1.35,0,0,1,.62-.38,7,7,0,0,1,1.19-.23,15.79,15.79,0,0,1,1.86-.09,15.24,15.24,0,0,1,1.83.09,7.16,7.16,0,0,1,1.16.23,1.26,1.26,0,0,1,.61.38.85.85,0,0,1,.18.53Z"/><path class="cls-70" d="M2278.37,738.89a11.72,11.72,0,0,1-.07,1.44,3.8,3.8,0,0,1-.22,1,1.2,1.2,0,0,1-.37.54.72.72,0,0,1-.48.18h-9.5v30.36a.8.8,0,0,1-.19.53,1.35,1.35,0,0,1-.63.37,6,6,0,0,1-1.19.24c-.5,0-1.12.08-1.86.08s-1.36,0-1.86-.08a6,6,0,0,1-1.19-.24,1.35,1.35,0,0,1-.63-.37.8.8,0,0,1-.19-.53V742h-9.5a.73.73,0,0,1-.5-.18,1.26,1.26,0,0,1-.35-.54,3.8,3.8,0,0,1-.22-1,11.72,11.72,0,0,1-.07-1.44,12.54,12.54,0,0,1,.07-1.48,4,4,0,0,1,.22-1,1.25,1.25,0,0,1,.35-.52.77.77,0,0,1,.5-.16h26.74a.75.75,0,0,1,.48.16,1.18,1.18,0,0,1,.37.52,4,4,0,0,1,.22,1A12.54,12.54,0,0,1,2278.37,738.89Z"/><path class="cls-71" d="M2315.37,754.15a27.73,27.73,0,0,1-1.17,8.38,16.65,16.65,0,0,1-3.49,6.27,14.9,14.9,0,0,1-5.73,3.93,21.19,21.19,0,0,1-7.9,1.36,23.69,23.69,0,0,1-7.73-1.15,13.39,13.39,0,0,1-5.49-3.51,14.88,14.88,0,0,1-3.3-6,29.63,29.63,0,0,1-1.1-8.61,27,27,0,0,1,1.17-8.23,16.7,16.7,0,0,1,3.49-6.21,15.12,15.12,0,0,1,5.73-3.93,21.08,21.08,0,0,1,7.93-1.37,23.53,23.53,0,0,1,7.61,1.13,13.41,13.41,0,0,1,5.51,3.5,15.05,15.05,0,0,1,3.34,5.95A28.25,28.25,0,0,1,2315.37,754.15Zm-8.09.4a28.8,28.8,0,0,0-.47-5.4,11.4,11.4,0,0,0-1.6-4.16,7.62,7.62,0,0,0-3-2.68,10.39,10.39,0,0,0-4.69-.94,9.62,9.62,0,0,0-4.75,1.06,8.67,8.67,0,0,0-3.08,2.84,11.77,11.77,0,0,0-1.66,4.15,25.23,25.23,0,0,0-.48,5A29.9,29.9,0,0,0,2288,760a11.88,11.88,0,0,0,1.58,4.21,7.19,7.19,0,0,0,3,2.66,10.62,10.62,0,0,0,4.72.92,9.73,9.73,0,0,0,4.75-1,8.52,8.52,0,0,0,3.08-2.85,11.9,11.9,0,0,0,1.66-4.21A26,26,0,0,0,2307.28,754.55Z"/><rect class="cls-12" x="2620" width="596" height="841.94"/><text class="cls-13" transform="translate(2851 44.82)">P<tspan class="cls-14" x="11.14" y="0">R</tspan><tspan class="cls-15" x="22.6" y="0">OPOSITION 3</tspan></text><text class="cls-72" transform="translate(2724.24 451.27)"><tspan class="cls-73">K</tspan><tspan x="55.93" y="0" xml:space="preserve">ri  Au</tspan><tspan class="cls-74" x="285" y="0">t</tspan><tspan x="320.15" y="0">o </tspan></text><polygon class="cls-75" points="2882 391.73 2882 447.65 2848 419.69 2882 391.73"/><text class="cls-76" transform="matrix(0.01, 1, -1, 0.01, 3111.87, 391.56)">.ma</text><rect class="cls-1" x="3283" width="596" height="841.94"/><text class="cls-77" transform="translate(3406.43 196.66)"><tspan class="cls-78">K</tspan><tspan x="47.46" y="0" xml:space="preserve">ri  Au</tspan><tspan class="cls-79" x="241.86" y="0">t</tspan><tspan x="271.68" y="0">o </tspan></text><polygon points="3542 143.34 3542 196.38 3509.75 169.86 3542 143.34"/><text class="cls-80" transform="matrix(0.01, 1, -1, 0.01, 3735.37, 146)">.ma</text><text class="cls-81" transform="translate(3406.43 513.38)"><tspan class="cls-78">K</tspan><tspan x="47.46" y="0" xml:space="preserve">ri  Au</tspan><tspan class="cls-79" x="241.86" y="0">t</tspan><tspan x="271.68" y="0">o </tspan></text><polygon class="cls-12" points="3542 460.07 3542 513.11 3509.75 486.59 3542 460.07"/><text class="cls-82" transform="matrix(0.01, 1, -1, 0.01, 3735.37, 462.72)">.ma</text><text class="cls-83" transform="translate(3406.43 355.02)"><tspan class="cls-78">K</tspan><tspan x="47.46" y="0" xml:space="preserve">ri  Au</tspan><tspan class="cls-79" x="241.86" y="0">t</tspan><tspan x="271.68" y="0">o </tspan></text><polygon class="cls-84" points="3542 301.7 3542 354.74 3509.75 328.22 3542 301.7"/><text class="cls-85" transform="matrix(0.01, 1, -1, 0.01, 3735.37, 304.36)">.ma</text><text class="cls-83" transform="translate(3406.43 671.75)"><tspan class="cls-78">K</tspan><tspan x="47.46" y="0" xml:space="preserve">ri  Au</tspan><tspan class="cls-79" x="241.86" y="0">t</tspan><tspan x="271.68" y="0">o </tspan></text><polygon class="cls-23" points="3542 618.43 3542 671.47 3509.75 644.95 3542 618.43"/><text class="cls-86" transform="matrix(0.01, 1, -1, 0.01, 3735.37, 621.09)">.ma</text><rect class="cls-12" x="5484" width="596" height="841.94"/><text class="cls-13" transform="translate(5715 44.82)">P<tspan class="cls-14" x="11.14" y="0">R</tspan><tspan class="cls-15" x="22.6" y="0">OPOSITION 5</tspan></text><path class="cls-1" d="M5740.5,410.26a4.19,4.19,0,1,0,4.18,4.18A4.18,4.18,0,0,0,5740.5,410.26Zm9.35,3.14a9.41,9.41,0,0,0-8.3-8.3v-2.16h-2.1v2.16a9.4,9.4,0,0,0-8.3,8.3H5729v2.09h2.15a9.4,9.4,0,0,0,8.3,8.3v2.15h2.1v-2.15a9.41,9.41,0,0,0,8.3-8.3H5752V413.4Zm-9.35,8.36a7.32,7.32,0,1,1,7.32-7.32A7.32,7.32,0,0,1,5740.5,421.76Z"/><path class="cls-1" d="M5740.12,449a2.46,2.46,0,0,1-1.61-.6c-.6-.51-14.76-12.66-20.66-25.92a2.48,2.48,0,0,1,4.53-2c4.32,9.69,13.85,19.11,17.7,22.67,6.77-6.58,19.9-21.29,19.9-30.82,0-11.27-8.91-20.44-19.86-20.44s-19.87,9.17-19.87,20.44a2.48,2.48,0,1,1-5,0c0-14,11.14-25.41,24.83-25.41s24.83,11.4,24.83,25.41c0,14.68-22.21,35.16-23.16,36A2.44,2.44,0,0,1,5740.12,449Z"/><text class="cls-72" transform="translate(5594.24 449.27)"><tspan class="cls-73">K</tspan><tspan x="55.93" y="0" xml:space="preserve">ri  Au</tspan><tspan class="cls-74" x="285" y="0">t</tspan><tspan x="320.15" y="0">o </tspan></text><text class="cls-76" transform="matrix(0.01, 1, -1, 0.01, 5977.87, 386.56)">.ma</text><path class="cls-12" d="M6483.43,186.26a4.19,4.19,0,1,0,4.19,4.18A4.18,4.18,0,0,0,6483.43,186.26Zm9.35,3.14a9.4,9.4,0,0,0-8.3-8.3v-2.16h-2.09v2.16a9.4,9.4,0,0,0-8.3,8.3h-2.16v2.09h2.16a9.4,9.4,0,0,0,8.3,8.3v2.15h2.09v-2.15a9.4,9.4,0,0,0,8.3-8.3h2.15V189.4Zm-9.35,8.36a7.32,7.32,0,1,1,7.32-7.32A7.31,7.31,0,0,1,6483.43,197.76Z"/><path class="cls-12" d="M6483.05,225a2.48,2.48,0,0,1-1.61-.6c-.6-.51-14.75-12.66-20.66-25.92a2.48,2.48,0,0,1,4.54-2c4.32,9.69,13.85,19.11,17.69,22.67,6.78-6.58,19.91-21.29,19.91-30.82,0-11.27-8.91-20.44-19.87-20.44s-19.86,9.17-19.86,20.44a2.49,2.49,0,0,1-5,0c0-14,11.14-25.41,24.83-25.41s24.83,11.4,24.83,25.41c0,14.68-22.21,35.16-23.15,36A2.48,2.48,0,0,1,6483.05,225Z"/><text class="cls-87" transform="translate(6337.18 225.27)"><tspan class="cls-73">K</tspan><tspan x="55.93" y="0" xml:space="preserve">ri  Au</tspan><tspan class="cls-74" x="285" y="0">t</tspan><tspan x="320.15" y="0">o </tspan></text><text class="cls-88" transform="matrix(0.01, 1, -1, 0.01, 6720.8, 162.56)">.ma</text><path class="cls-12" d="M6483.55,353.15a4.18,4.18,0,1,0,4.18,4.19A4.18,4.18,0,0,0,6483.55,353.15Zm9.34,3.15a9.4,9.4,0,0,0-8.28-8.32v-2.15h-2.09V348a9.41,9.41,0,0,0-8.32,8.28h-2.15v2.09h2.15a9.41,9.41,0,0,0,8.29,8.32v2.16h2.1v-2.15a9.41,9.41,0,0,0,8.32-8.29H6495v-2.09Zm-9.36,8.35a7.32,7.32,0,1,1,7.33-7.31A7.32,7.32,0,0,1,6483.53,364.65Z"/><path class="cls-23" d="M6483.09,391.91a2.48,2.48,0,0,1-1.61-.6c-.6-.51-14.73-12.69-20.61-26a2.49,2.49,0,0,1,4.55-2c4.29,9.71,13.81,19.15,17.64,22.71,6.79-6.57,19.95-21.24,20-30.78,0-11.27-8.87-20.45-19.82-20.48s-19.89,9.13-19.91,20.4a2.49,2.49,0,0,1-5,0c0-14,11.19-25.38,24.89-25.35S6508,341.27,6508,355.28c0,14.68-22.28,35.12-23.23,36A2.52,2.52,0,0,1,6483.09,391.91Z"/><text class="cls-87" transform="translate(6337.14 391.81) rotate(0.12)"><tspan class="cls-73">K</tspan><tspan x="55.93" y="0" xml:space="preserve">ri  Au</tspan><tspan class="cls-74" x="285" y="0">t</tspan><tspan x="320.15" y="0">o </tspan></text><text class="cls-89" transform="matrix(0.01, 1, -1, 0.01, 6720.92, 329.96)">.ma</text><path d="M6483.55,520.14a4.18,4.18,0,1,0,4.18,4.19A4.18,4.18,0,0,0,6483.55,520.14Zm9.34,3.16a9.4,9.4,0,0,0-8.28-8.32v-2.15h-2.09V515a9.42,9.42,0,0,0-8.32,8.29h-2.15v2.09h2.15a9.42,9.42,0,0,0,8.29,8.32v2.15h2.1v-2.16a9.4,9.4,0,0,0,8.32-8.28H6495V523.3Zm-9.36,8.34a7.32,7.32,0,1,1,7.33-7.3A7.31,7.31,0,0,1,6483.53,531.64Z"/><path d="M6483.09,558.9a2.52,2.52,0,0,1-1.61-.59c-.6-.51-14.73-12.7-20.61-26a2.49,2.49,0,1,1,4.55-2c4.29,9.7,13.81,19.14,17.64,22.7,6.79-6.56,19.95-21.24,20-30.77,0-11.27-8.87-20.46-19.82-20.48s-19.89,9.13-19.91,20.39a2.49,2.49,0,0,1-5,0c0-14,11.19-25.38,24.89-25.35S6508,508.27,6508,522.28c0,14.68-22.28,35.11-23.23,36A2.51,2.51,0,0,1,6483.09,558.9Z"/><text class="cls-90" transform="translate(6337.14 558.8) rotate(0.12)"><tspan class="cls-73">K</tspan><tspan x="55.93" y="0" xml:space="preserve">ri  Au</tspan><tspan class="cls-74" x="285" y="0">t</tspan><tspan x="320.15" y="0">o </tspan></text><text class="cls-91" transform="matrix(0.01, 1, -1, 0.01, 6720.92, 496.96)">.ma</text><path d="M6483.55,690.14a4.18,4.18,0,1,0,4.18,4.19A4.18,4.18,0,0,0,6483.55,690.14Zm9.34,3.15a9.4,9.4,0,0,0-8.28-8.32v-2.15h-2.09V685a9.4,9.4,0,0,0-8.32,8.28h-2.15v2.09h2.15a9.42,9.42,0,0,0,8.29,8.32v2.16h2.1v-2.15a9.42,9.42,0,0,0,8.32-8.29H6495V693.3Zm-9.36,8.35a7.32,7.32,0,1,1,7.33-7.31A7.32,7.32,0,0,1,6483.53,701.64Z"/><path class="cls-92" d="M6483.09,728.9a2.48,2.48,0,0,1-1.61-.6c-.6-.51-14.73-12.69-20.61-26a2.49,2.49,0,0,1,4.55-2c4.29,9.71,13.81,19.15,17.64,22.71,6.79-6.57,19.95-21.25,20-30.78,0-11.27-8.87-20.45-19.82-20.48s-19.89,9.13-19.91,20.4a2.49,2.49,0,0,1-5,0c0-14,11.19-25.38,24.89-25.35S6508,678.26,6508,692.27c0,14.68-22.28,35.11-23.23,36A2.52,2.52,0,0,1,6483.09,728.9Z"/><text class="cls-90" transform="translate(6337.14 725.8) rotate(0.12)"><tspan class="cls-73">K</tspan><tspan x="55.93" y="0" xml:space="preserve">ri  </tspan><tspan class="cls-93" x="165.8" y="0">Au</tspan><tspan class="cls-94" x="285" y="0">t</tspan><tspan class="cls-92" x="320.15" y="0">o</tspan><tspan class="cls-95" x="376.23" y="0"> </tspan></text><text class="cls-96" transform="matrix(0.01, 1, -1, 0.01, 6720.92, 666.95)">.ma</text></g></g></svg>