<svg xmlns="http://www.w3.org/2000/svg" xmlns:xlink="http://www.w3.org/1999/xlink" viewBox="0 0 596 841.94"><defs><style>.cls-1{fill:#fff;}.cls-10,.cls-2{fill:#e27203;}.cls-10,.cls-12,.cls-3,.cls-7,.cls-8{font-size:59.62px;font-family:Calibri-Bold, Calibri;font-weight:700;}.cls-3{fill:#0e8bc9;}.cls-4{letter-spacing:-0.02em;}.cls-5{letter-spacing:-0.03em;}.cls-6,.cls-7{fill:#0582d8;}.cls-9{fill:#00a5d8;}.cls-11,.cls-12,.cls-13{fill:#1c4156;}.cls-13{font-size:17.39px;font-family:BebasNeueLight, Bebas Neue;letter-spacing:0.13em;}.cls-14{letter-spacing:0.13em;}.cls-15{letter-spacing:0.14em;}.cls-16{fill:url(#linear-gradient);}.cls-17{fill:url(#linear-gradient-2);}.cls-18{fill:url(#linear-gradient-3);}.cls-19{fill:url(#linear-gradient-4);}.cls-20{fill:url(#linear-gradient-5);}.cls-21{fill:url(#linear-gradient-6);}.cls-22{fill:url(#linear-gradient-7);}.cls-23{fill:url(#linear-gradient-8);}</style><linearGradient id="linear-gradient" x1="386.59" y1="729.14" x2="418.72" y2="729.14" gradientUnits="userSpaceOnUse"><stop offset="0" stop-color="#001927"/><stop offset="0.04" stop-color="#001c30"/><stop offset="0.15" stop-color="#002241"/><stop offset="0.29" stop-color="#00264c"/><stop offset="0.47" stop-color="#002853"/><stop offset="1" stop-color="#002955"/></linearGradient><linearGradient id="linear-gradient-2" x1="181.92" y1="754.58" x2="209.63" y2="754.58" xlink:href="#linear-gradient"/><linearGradient id="linear-gradient-3" x1="214.76" y1="754.67" x2="242.9" y2="754.67" xlink:href="#linear-gradient"/><linearGradient id="linear-gradient-4" x1="248.56" y1="754.58" x2="256.3" y2="754.58" xlink:href="#linear-gradient"/><linearGradient id="linear-gradient-5" x1="261.18" y1="754.58" x2="296.11" y2="754.58" xlink:href="#linear-gradient"/><linearGradient id="linear-gradient-6" x1="299.9" y1="754.83" x2="330.89" y2="754.83" xlink:href="#linear-gradient"/><linearGradient id="linear-gradient-7" x1="335.35" y1="754.67" x2="364.37" y2="754.67" xlink:href="#linear-gradient"/><linearGradient id="linear-gradient-8" x1="365.46" y1="754.58" x2="401.37" y2="754.58" xlink:href="#linear-gradient"/></defs><title>Asset 28</title><g id="Layer_2" data-name="Layer 2"><g id="App_Icon_Kit_B" data-name="App Icon Kit B"><rect class="cls-1" width="596" height="841.94"/><path class="cls-2" d="M404,71.75c1.14,2.56,2.82,2.5,3.76-.15L418.4,41.51c.94-2.65-.27-3.63-2.68-2.2L388.24,55.54c-2.42,1.42-2.16,3.09.58,3.72l10.72,2.45Z"/><text class="cls-3" transform="translate(177.78 100.42) scale(1.01 1)">KRI<tspan class="cls-4" x="82.07" y="0">A</tspan><tspan x="117.18" y="0">U</tspan><tspan class="cls-5" x="156.1" y="0">T</tspan><tspan x="184.02" y="0">O</tspan></text><path class="cls-6" d="M404,196.75c1.14,2.56,2.82,2.5,3.76-.15l10.63-30.09c.94-2.65-.27-3.63-2.68-2.2l-27.48,16.23c-2.42,1.42-2.16,3.09.58,3.72l10.72,2.45Z"/><text class="cls-7" transform="translate(177.78 225.42) scale(1.01 1)">KRI<tspan class="cls-4" x="82.07" y="0">A</tspan><tspan x="117.18" y="0">U</tspan><tspan class="cls-5" x="156.1" y="0">T</tspan><tspan x="184.02" y="0">O</tspan></text><path d="M404,333.75c1.14,2.56,2.82,2.5,3.76-.15l10.63-30.09c.94-2.65-.27-3.63-2.68-2.2l-27.48,16.23c-2.42,1.42-2.16,3.09.58,3.72l10.72,2.45Z"/><text class="cls-8" transform="translate(177.78 362.42) scale(1.01 1)">KRI<tspan class="cls-4" x="82.07" y="0">A</tspan><tspan x="117.18" y="0">U</tspan><tspan class="cls-5" x="156.1" y="0">T</tspan><tspan x="184.02" y="0">O</tspan></text><path class="cls-9" d="M404,466.75c1.14,2.56,2.82,2.5,3.76-.15l10.63-30.09c.94-2.65-.27-3.63-2.68-2.2l-27.48,16.23c-2.42,1.42-2.16,3.09.58,3.72l10.72,2.45Z"/><text class="cls-10" transform="translate(177.78 495.42) scale(1.01 1)">KRI<tspan class="cls-4" x="82.07" y="0">A</tspan><tspan x="117.18" y="0">U</tspan><tspan class="cls-5" x="156.1" y="0">T</tspan><tspan x="184.02" y="0">O</tspan></text><path class="cls-11" d="M404,609.75c1.14,2.56,2.82,2.5,3.76-.15l10.63-30.09c.94-2.65-.27-3.63-2.68-2.2l-27.48,16.23c-2.42,1.42-2.16,3.09.58,3.72l10.72,2.45Z"/><text class="cls-12" transform="translate(177.78 638.42) scale(1.01 1)">KRI<tspan class="cls-4" x="82.07" y="0">A</tspan><tspan x="117.18" y="0">U</tspan><tspan class="cls-5" x="156.1" y="0">T</tspan><tspan x="184.02" y="0">O</tspan></text><text class="cls-13" transform="translate(180.5 658.83)"><tspan xml:space="preserve">vehicle  tr</tspan><tspan class="cls-14" x="84.54" y="0">a</tspan><tspan class="cls-15" x="94.64" y="0" xml:space="preserve">cking  solutions</tspan></text><text class="cls-13" transform="translate(180.5 790.83)"><tspan xml:space="preserve">vehicle  tr</tspan><tspan class="cls-14" x="84.54" y="0">a</tspan><tspan class="cls-15" x="94.64" y="0" xml:space="preserve">cking  solutions</tspan></text><text class="cls-13" transform="translate(180.5 510.83)"><tspan xml:space="preserve">vehicle  tr</tspan><tspan class="cls-14" x="84.54" y="0">a</tspan><tspan class="cls-15" x="94.64" y="0" xml:space="preserve">cking  solutions</tspan></text><text class="cls-13" transform="translate(180.5 380.83)"><tspan xml:space="preserve">vehicle  tr</tspan><tspan class="cls-14" x="84.54" y="0">a</tspan><tspan class="cls-15" x="94.64" y="0" xml:space="preserve">cking  solutions</tspan></text><text class="cls-13" transform="translate(180.5 241.83)"><tspan xml:space="preserve">vehicle  tr</tspan><tspan class="cls-14" x="84.54" y="0">a</tspan><tspan class="cls-15" x="94.64" y="0" xml:space="preserve">cking  solutions</tspan></text><text class="cls-13" transform="translate(180.5 118.83)"><tspan xml:space="preserve">vehicle  tr</tspan><tspan class="cls-14" x="84.54" y="0">a</tspan><tspan class="cls-15" x="94.64" y="0" xml:space="preserve">cking  solutions</tspan></text><path class="cls-16" d="M404,744.75c1.14,2.56,2.82,2.5,3.76-.15l10.63-30.09c.94-2.65-.27-3.63-2.68-2.2l-27.48,16.23c-2.42,1.42-2.16,3.09.58,3.72l10.72,2.45Z"/><path class="cls-17" d="M209.63,772.28a1,1,0,0,1-.17.57,1.13,1.13,0,0,1-.61.41,5.81,5.81,0,0,1-1.25.25c-.53,0-1.19.08-2,.08a19.08,19.08,0,0,1-2.74-.14,2.74,2.74,0,0,1-1.21-.44,2.15,2.15,0,0,1-.57-.7l-11.46-17.87v17.87a.89.89,0,0,1-.18.56,1.34,1.34,0,0,1-.61.39,5.47,5.47,0,0,1-1.17.25c-.49,0-1.12.08-1.88.08s-1.37,0-1.86-.08a5.29,5.29,0,0,1-1.19-.25,1.55,1.55,0,0,1-.63-.39.85.85,0,0,1-.19-.56V736.83a.85.85,0,0,1,.19-.56,1.44,1.44,0,0,1,.63-.38,7,7,0,0,1,1.19-.23,19.47,19.47,0,0,1,3.74,0,7.31,7.31,0,0,1,1.17.23,1.26,1.26,0,0,1,.61.38.89.89,0,0,1,.18.56v16l11.11-16a2,2,0,0,1,.5-.63,2,2,0,0,1,.76-.39,5.56,5.56,0,0,1,1.2-.21c.49,0,1.12-.06,1.88-.06a17.18,17.18,0,0,1,1.94.09,5.63,5.63,0,0,1,1.21.25,1.31,1.31,0,0,1,.63.39.85.85,0,0,1,.18.53,2.19,2.19,0,0,1-.27,1,17.13,17.13,0,0,1-1,1.66L197.37,753l11.35,17a12.12,12.12,0,0,1,.77,1.59A2.08,2.08,0,0,1,209.63,772.28Z"/><path class="cls-18" d="M242.9,772.43a1.27,1.27,0,0,1-.11.54,1,1,0,0,1-.56.36,5,5,0,0,1-1.29.2c-.57,0-1.34.06-2.32.06-.82,0-1.47,0-2-.06a4.31,4.31,0,0,1-1.16-.21,1.35,1.35,0,0,1-.6-.41,2,2,0,0,1-.29-.6l-3.41-8.41c-.41-.95-.81-1.79-1.2-2.53a7.86,7.86,0,0,0-1.3-1.85A4.65,4.65,0,0,0,227,758.4a5.8,5.8,0,0,0-2.17-.38h-2.4v14.35a.86.86,0,0,1-.19.53,1.35,1.35,0,0,1-.63.37,6.21,6.21,0,0,1-1.18.24c-.49,0-1.11.08-1.87.08s-1.37,0-1.86-.08a6,6,0,0,1-1.19-.24,1.22,1.22,0,0,1-.62-.37.84.84,0,0,1-.17-.53V738.16a2.29,2.29,0,0,1,.66-1.84,2.39,2.39,0,0,1,1.62-.57h9.82c1,0,1.82,0,2.47.06s1.23.08,1.76.14a16.24,16.24,0,0,1,4.12,1.11,9.86,9.86,0,0,1,3.1,2.05,8.47,8.47,0,0,1,1.95,3,10.86,10.86,0,0,1,.68,4,11.32,11.32,0,0,1-.49,3.45,8.6,8.6,0,0,1-1.42,2.78,9.25,9.25,0,0,1-2.31,2.13,12.76,12.76,0,0,1-3.14,1.45,9.71,9.71,0,0,1,1.6,1,8.2,8.2,0,0,1,1.4,1.42,13.18,13.18,0,0,1,1.25,1.89,24.66,24.66,0,0,1,1.14,2.4l3.2,7.42c.29.74.49,1.28.59,1.62A3.43,3.43,0,0,1,242.9,772.43ZM233,746.87a5.57,5.57,0,0,0-.85-3.15,4.61,4.61,0,0,0-2.78-1.8,10.6,10.6,0,0,0-1.34-.23,18.06,18.06,0,0,0-2.06-.09h-3.46v10.68h3.93a9.53,9.53,0,0,0,2.87-.39,5.68,5.68,0,0,0,2-1.11,4.4,4.4,0,0,0,1.23-1.7A5.62,5.62,0,0,0,233,746.87Z"/><path class="cls-19" d="M256.3,772.37a.8.8,0,0,1-.19.53,1.35,1.35,0,0,1-.63.37,5.92,5.92,0,0,1-1.17.24c-.49,0-1.12.08-1.88.08s-1.36,0-1.86-.08a6.17,6.17,0,0,1-1.19-.24,1.35,1.35,0,0,1-.63-.37.8.8,0,0,1-.19-.53V736.8a.8.8,0,0,1,.19-.53,1.41,1.41,0,0,1,.65-.38,7.47,7.47,0,0,1,1.18-.23,15.72,15.72,0,0,1,1.85-.09,16,16,0,0,1,1.88.09,6.88,6.88,0,0,1,1.17.23,1.44,1.44,0,0,1,.63.38.8.8,0,0,1,.19.53Z"/><path class="cls-20" d="M295.65,770.57a10.72,10.72,0,0,1,.44,1.66,1,1,0,0,1-.24.91,1.85,1.85,0,0,1-1.14.38c-.55.05-1.3.07-2.26.07s-1.77,0-2.33,0a6.28,6.28,0,0,1-1.27-.17,1.15,1.15,0,0,1-.62-.37,1.93,1.93,0,0,1-.29-.61l-2.55-7.57H271.14l-2.41,7.37a2.53,2.53,0,0,1-.3.68,1.29,1.29,0,0,1-.62.44,4.42,4.42,0,0,1-1.2.21q-.78.06-2,.06c-.9,0-1.6,0-2.11-.08a1.61,1.61,0,0,1-1.06-.43,1.13,1.13,0,0,1-.2-.94,9,9,0,0,1,.44-1.63l11.7-33.42a2.6,2.6,0,0,1,.41-.8,1.4,1.4,0,0,1,.74-.47,6,6,0,0,1,1.43-.2c.6,0,1.4,0,2.4,0,1.15,0,2.07,0,2.76,0a7.22,7.22,0,0,1,1.59.2,1.58,1.58,0,0,1,.83.48,3.14,3.14,0,0,1,.42.88Zm-17.42-27.63h0l-5.36,16H283.6Z"/><path class="cls-21" d="M330.89,759.39a17.45,17.45,0,0,1-1,6.2,12.21,12.21,0,0,1-3,4.63,13.18,13.18,0,0,1-4.92,2.88,21.08,21.08,0,0,1-6.75,1,21.61,21.61,0,0,1-6.42-.89,12.44,12.44,0,0,1-4.8-2.69,11.74,11.74,0,0,1-3-4.5,17.55,17.55,0,0,1-1-6.3V736.8a.85.85,0,0,1,.18-.53,1.24,1.24,0,0,1,.63-.38,7.24,7.24,0,0,1,1.18-.23,16,16,0,0,1,1.88-.09,15.72,15.72,0,0,1,1.85.09,7.09,7.09,0,0,1,1.17.23,1.44,1.44,0,0,1,.63.38.8.8,0,0,1,.19.53V759a12.13,12.13,0,0,0,.56,3.88,7.08,7.08,0,0,0,1.6,2.73,6.65,6.65,0,0,0,2.49,1.61,9.17,9.17,0,0,0,3.24.54,9,9,0,0,0,3.25-.55,6.53,6.53,0,0,0,2.44-1.62,7.28,7.28,0,0,0,1.53-2.62,10.52,10.52,0,0,0,.55-3.54V736.8a.9.9,0,0,1,.17-.53,1.35,1.35,0,0,1,.62-.38,7,7,0,0,1,1.19-.23,15.79,15.79,0,0,1,1.86-.09,15.24,15.24,0,0,1,1.83.09,7.16,7.16,0,0,1,1.16.23,1.26,1.26,0,0,1,.61.38.85.85,0,0,1,.18.53Z"/><path class="cls-22" d="M364.37,738.89a11.72,11.72,0,0,1-.07,1.44,3.8,3.8,0,0,1-.22,1,1.2,1.2,0,0,1-.37.54.72.72,0,0,1-.48.18h-9.5v30.36a.8.8,0,0,1-.19.53,1.35,1.35,0,0,1-.63.37,6,6,0,0,1-1.19.24c-.5,0-1.12.08-1.86.08s-1.36,0-1.86-.08a6,6,0,0,1-1.19-.24,1.35,1.35,0,0,1-.63-.37.8.8,0,0,1-.19-.53V742h-9.5a.73.73,0,0,1-.5-.18,1.26,1.26,0,0,1-.35-.54,3.8,3.8,0,0,1-.22-1,11.72,11.72,0,0,1-.07-1.44,12.54,12.54,0,0,1,.07-1.48,4,4,0,0,1,.22-1,1.25,1.25,0,0,1,.35-.52.77.77,0,0,1,.5-.16h26.74a.75.75,0,0,1,.48.16,1.18,1.18,0,0,1,.37.52,4,4,0,0,1,.22,1A12.54,12.54,0,0,1,364.37,738.89Z"/><path class="cls-23" d="M401.37,754.15a27.73,27.73,0,0,1-1.17,8.38,16.65,16.65,0,0,1-3.49,6.27,14.9,14.9,0,0,1-5.73,3.93,21.19,21.19,0,0,1-7.9,1.36,23.69,23.69,0,0,1-7.73-1.15,13.39,13.39,0,0,1-5.49-3.51,14.88,14.88,0,0,1-3.3-6,29.63,29.63,0,0,1-1.1-8.61,27,27,0,0,1,1.17-8.23,16.7,16.7,0,0,1,3.49-6.21,15.12,15.12,0,0,1,5.73-3.93,21.08,21.08,0,0,1,7.93-1.37,23.53,23.53,0,0,1,7.61,1.13,13.41,13.41,0,0,1,5.51,3.5,15.05,15.05,0,0,1,3.34,5.95A28.25,28.25,0,0,1,401.37,754.15Zm-8.09.4a28.8,28.8,0,0,0-.47-5.4,11.4,11.4,0,0,0-1.6-4.16,7.62,7.62,0,0,0-3-2.68,10.39,10.39,0,0,0-4.69-.94,9.62,9.62,0,0,0-4.75,1.06,8.67,8.67,0,0,0-3.08,2.84,11.77,11.77,0,0,0-1.66,4.15,25.23,25.23,0,0,0-.48,5A29.9,29.9,0,0,0,374,760a11.88,11.88,0,0,0,1.58,4.21,7.19,7.19,0,0,0,3,2.66,10.62,10.62,0,0,0,4.72.92,9.73,9.73,0,0,0,4.75-1,8.52,8.52,0,0,0,3.08-2.85,11.9,11.9,0,0,0,1.66-4.21A26,26,0,0,0,393.28,754.55Z"/></g></g></svg>