<svg xmlns="http://www.w3.org/2000/svg" viewBox="0 0 596 841.94"><defs><style>.cls-1{fill:#fff;}.cls-2,.cls-6,.cls-9{font-size:88.53px;}.cls-11,.cls-13,.cls-2,.cls-5,.cls-6,.cls-8,.cls-9{font-family:Calibri-Bold, Calibri;font-weight:700;}.cls-3{letter-spacing:-0.01em;}.cls-4{letter-spacing:-0.01em;}.cls-11,.cls-13,.cls-5,.cls-8{font-size:33.61px;}.cls-12,.cls-13,.cls-6{fill:#fc9c20;}.cls-7,.cls-8{fill:#0e8bc9;}.cls-10,.cls-11,.cls-9{fill:#1793c9;}</style></defs><title>Asset 29</title><g id="Layer_2" data-name="Layer 2"><g id="App_Icon_Kit_B" data-name="App Icon Kit B"><rect class="cls-1" width="596" height="841.94"/><text class="cls-2" transform="translate(123.43 196.66)"><tspan class="cls-3">K</tspan><tspan x="47.46" y="0" xml:space="preserve">ri  Au</tspan><tspan class="cls-4" x="241.86" y="0">t</tspan><tspan x="271.68" y="0">o </tspan></text><polygon points="259 143.34 259 196.38 226.75 169.86 259 143.34"/><text class="cls-5" transform="matrix(0.01, 1, -1, 0.01, 452.37, 146)">.ma</text><text class="cls-6" transform="translate(123.43 513.38)"><tspan class="cls-3">K</tspan><tspan x="47.46" y="0" xml:space="preserve">ri  Au</tspan><tspan class="cls-4" x="241.86" y="0">t</tspan><tspan x="271.68" y="0">o </tspan></text><polygon class="cls-7" points="259 460.07 259 513.11 226.75 486.59 259 460.07"/><text class="cls-8" transform="matrix(0.01, 1, -1, 0.01, 452.37, 462.72)">.ma</text><text class="cls-9" transform="translate(123.43 355.02)"><tspan class="cls-3">K</tspan><tspan x="47.46" y="0" xml:space="preserve">ri  Au</tspan><tspan class="cls-4" x="241.86" y="0">t</tspan><tspan x="271.68" y="0">o </tspan></text><polygon class="cls-10" points="259 301.7 259 354.74 226.75 328.22 259 301.7"/><text class="cls-11" transform="matrix(0.01, 1, -1, 0.01, 452.37, 304.36)">.ma</text><text class="cls-9" transform="translate(123.43 671.75)"><tspan class="cls-3">K</tspan><tspan x="47.46" y="0" xml:space="preserve">ri  Au</tspan><tspan class="cls-4" x="241.86" y="0">t</tspan><tspan x="271.68" y="0">o </tspan></text><polygon class="cls-12" points="259 618.43 259 671.47 226.75 644.95 259 618.43"/><text class="cls-13" transform="matrix(0.01, 1, -1, 0.01, 452.37, 621.09)">.ma</text></g></g></svg>