<svg xmlns="http://www.w3.org/2000/svg" viewBox="0 0 596 841.94"><defs><style>.cls-1{fill:#0e8bc9;}.cls-2{font-size:21.94px;font-family:Calibri-Light, Calibri;}.cls-2,.cls-5,.cls-6,.cls-9{fill:#fff;}.cls-3{letter-spacing:-0.01em;}.cls-4{letter-spacing:0em;}.cls-6{font-size:104.32px;}.cls-6,.cls-9{font-family:Calibri-Bold, Calibri;font-weight:700;}.cls-7{letter-spacing:-0.01em;}.cls-8{letter-spacing:-0.01em;}.cls-9{font-size:39.61px;}</style></defs><title>Asset 23</title><g id="Layer_2" data-name="Layer 2"><g id="App_Icon_Kit_B" data-name="App Icon Kit B"><rect class="cls-1" width="596" height="841.94"/><text class="cls-2" transform="translate(231 44.82)">P<tspan class="cls-3" x="11.14" y="0">R</tspan><tspan class="cls-4" x="22.6" y="0">OPOSITION 5</tspan></text><path class="cls-5" d="M256.5,410.26a4.19,4.19,0,1,0,4.18,4.18A4.18,4.18,0,0,0,256.5,410.26Zm9.35,3.14a9.41,9.41,0,0,0-8.3-8.3v-2.16h-2.1v2.16a9.4,9.4,0,0,0-8.3,8.3H245v2.09h2.15a9.4,9.4,0,0,0,8.3,8.3v2.15h2.1v-2.15a9.41,9.41,0,0,0,8.3-8.3H268V413.4Zm-9.35,8.36a7.32,7.32,0,1,1,7.32-7.32A7.32,7.32,0,0,1,256.5,421.76Z"/><path class="cls-5" d="M256.12,449a2.46,2.46,0,0,1-1.61-.6c-.6-.51-14.76-12.66-20.66-25.92a2.48,2.48,0,0,1,4.53-2c4.32,9.69,13.85,19.11,17.7,22.67,6.77-6.58,19.9-21.29,19.9-30.82,0-11.27-8.91-20.44-19.86-20.44s-19.87,9.17-19.87,20.44a2.48,2.48,0,1,1-5,0c0-14,11.14-25.41,24.83-25.41S281,398.34,281,412.35c0,14.68-22.21,35.16-23.16,36A2.44,2.44,0,0,1,256.12,449Z"/><text class="cls-6" transform="translate(110.24 449.27)"><tspan class="cls-7">K</tspan><tspan x="55.93" y="0" xml:space="preserve">ri  Au</tspan><tspan class="cls-8" x="285" y="0">t</tspan><tspan x="320.15" y="0">o </tspan></text><text class="cls-9" transform="matrix(0.01, 1, -1, 0.01, 493.87, 386.56)">.ma</text></g></g></svg>