<svg xmlns="http://www.w3.org/2000/svg" viewBox="0 0 596 841.94"><defs><style>.cls-1,.cls-6{fill:#0e8bc9;}.cls-2{font-size:21.94px;font-family:Calibri-Light, Calibri;}.cls-2,.cls-5{fill:#fff;}.cls-3{letter-spacing:-0.01em;}.cls-4{letter-spacing:0em;}.cls-6{font-size:65.66px;font-family:Raleway-BoldItalic, Raleway;font-style:italic;}.cls-7{font-weight:700;}.cls-8,.cls-9{font-family:Raleway-BlackItalic, Raleway;}.cls-8{letter-spacing:-0.03em;}.cls-9{letter-spacing:0em;}</style></defs><title>Asset 35</title><g id="Layer_2" data-name="Layer 2"><g id="App_Icon_Kit_B" data-name="App Icon Kit B"><g id="App_Icon_and_Badge" data-name="App Icon and Badge"><rect class="cls-1" width="596" height="841.94"/><text class="cls-2" transform="translate(231 44.82)">P<tspan class="cls-3" x="11.14" y="0">R</tspan><tspan class="cls-4" x="22.6" y="0">OPOSITION 4</tspan></text><rect class="cls-5" x="83" y="365.94" width="429" height="99"/><text class="cls-6" transform="translate(114.24 443.58)"><tspan class="cls-7">KRI</tspan><tspan class="cls-8" x="103.09" y="0">A</tspan><tspan class="cls-9" x="143.01" y="0">UTO</tspan></text><path class="cls-1" d="M470.64,409.8,464.41,392A12.16,12.16,0,0,0,453,383.83H420.38a12.15,12.15,0,0,0-11.46,8.12l-6.24,17.83a12.13,12.13,0,0,0-5.45,10.14v21.52a6.07,6.07,0,1,0,12.13,0v-3.82s16,.79,27.3.8,27.29-.78,27.29-.78v3.82a6.07,6.07,0,1,0,12.13,0V419.94A12.14,12.14,0,0,0,470.64,409.8Zm-59.47-5.93,3.48-9.92a6.06,6.06,0,0,1,5.73-4.06H453a6.07,6.07,0,0,1,5.73,4.06l3.47,9.93a2.16,2.16,0,0,1-2.39,2.87,158.25,158.25,0,0,0-46.2,0A2.17,2.17,0,0,1,411.17,403.87Zm-.3,22.41a4.55,4.55,0,1,1,4.55-4.55A4.55,4.55,0,0,1,410.87,426.28Zm34.88-3h-18.2a3,3,0,0,1,0-6.07h18.19a3,3,0,0,1,0,6.07Zm16.68,3a4.55,4.55,0,1,1,4.55-4.55A4.55,4.55,0,0,1,462.43,426.3Z"/></g></g></g></svg>