<svg xmlns="http://www.w3.org/2000/svg" viewBox="0 0 416.75 622.89"><defs><style>.cls-1,.cls-2,.cls-5{fill:#0e8bc9;}.cls-2,.cls-8{font-size:104.32px;}.cls-14,.cls-2,.cls-5,.cls-7,.cls-8,.cls-9{font-family:Calibri-Bold, Calibri;font-weight:700;}.cls-3{letter-spacing:-0.01em;}.cls-12,.cls-4{letter-spacing:-0.01em;}.cls-14,.cls-5,.cls-7,.cls-9{font-size:39.61px;}.cls-6,.cls-7{fill:#fc9c20;}.cls-10,.cls-11,.cls-12,.cls-14{fill:#e8860c;}.cls-11,.cls-13{letter-spacing:0em;}</style></defs><title>Asset 31</title><g id="Layer_2" data-name="Layer 2"><g id="App_Icon_Kit_B" data-name="App Icon Kit B"><path class="cls-1" d="M146.37,46.11a4.18,4.18,0,1,0,4.19,4.18A4.18,4.18,0,0,0,146.37,46.11Zm9.35,3.14a9.42,9.42,0,0,0-8.3-8.31V38.79h-2.09v2.15a9.42,9.42,0,0,0-8.3,8.31h-2.16v2.09H137a9.4,9.4,0,0,0,8.3,8.3v2.15h2.09V59.64a9.4,9.4,0,0,0,8.3-8.3h2.15V49.25Zm-9.35,8.36a7.32,7.32,0,1,1,7.32-7.32A7.31,7.31,0,0,1,146.37,57.61Z"/><path class="cls-1" d="M146,84.87a2.47,2.47,0,0,1-1.61-.59c-.6-.51-14.75-12.66-20.66-25.92a2.48,2.48,0,0,1,4.54-2C132.58,66,142.11,75.46,146,79c6.78-6.58,19.91-21.28,19.91-30.82,0-11.26-8.91-20.43-19.87-20.43s-19.86,9.17-19.86,20.43a2.49,2.49,0,1,1-5,0c0-14,11.14-25.4,24.83-25.4s24.83,11.4,24.83,25.4c0,14.68-22.21,35.16-23.15,36A2.52,2.52,0,0,1,146,84.87Z"/><text class="cls-2" transform="translate(0.12 85.12)"><tspan class="cls-3">K</tspan><tspan x="55.93" y="0" xml:space="preserve">ri  Au</tspan><tspan class="cls-4" x="285" y="0">t</tspan><tspan x="320.15" y="0">o </tspan></text><text class="cls-5" transform="matrix(0.01, 1, -1, 0.01, 383.74, 22.41)">.ma</text><path class="cls-1" d="M146.49,213a4.19,4.19,0,1,0,4.17,4.19A4.19,4.19,0,0,0,146.49,213Zm9.34,3.16a9.4,9.4,0,0,0-8.28-8.32v-2.15h-2.09v2.16a9.4,9.4,0,0,0-8.32,8.28H135v2.09h2.15a9.42,9.42,0,0,0,8.29,8.32v2.15h2.09v-2.16a9.4,9.4,0,0,0,8.32-8.28H158v-2.09Zm-9.36,8.34a7.32,7.32,0,1,1,7.33-7.3A7.33,7.33,0,0,1,146.47,224.49Z"/><path class="cls-6" d="M146,251.75a2.45,2.45,0,0,1-1.61-.59c-.6-.51-14.73-12.69-20.61-26a2.49,2.49,0,1,1,4.55-2c4.29,9.7,13.8,19.14,17.64,22.71,6.79-6.57,19.95-21.25,20-30.78,0-11.27-8.87-20.46-19.82-20.48s-19.89,9.13-19.91,20.4a2.49,2.49,0,0,1-5,0c0-14,11.19-25.38,24.89-25.36s24.81,11.45,24.78,25.46c0,14.68-22.29,35.11-23.23,36A2.46,2.46,0,0,1,146,251.75Z"/><text class="cls-2" transform="translate(0.08 251.65) rotate(0.12)"><tspan class="cls-3">K</tspan><tspan x="55.93" y="0" xml:space="preserve">ri  Au</tspan><tspan class="cls-4" x="285" y="0">t</tspan><tspan x="320.15" y="0">o </tspan></text><text class="cls-7" transform="matrix(0.01, 1, -1, 0.01, 383.86, 189.81)">.ma</text><path d="M146.49,380a4.18,4.18,0,1,0,4.17,4.19A4.18,4.18,0,0,0,146.49,380Zm9.34,3.15a9.4,9.4,0,0,0-8.28-8.32v-2.15h-2.09v2.15a9.41,9.41,0,0,0-8.32,8.28H135v2.09h2.15a9.41,9.41,0,0,0,8.29,8.31v2.16h2.09v-2.15a9.41,9.41,0,0,0,8.32-8.29H158v-2.09Zm-9.36,8.35a7.32,7.32,0,1,1,7.33-7.31A7.34,7.34,0,0,1,146.47,391.49Z"/><path d="M146,418.75a2.46,2.46,0,0,1-1.61-.6c-.6-.51-14.73-12.69-20.61-26a2.49,2.49,0,0,1,4.55-2c4.29,9.71,13.8,19.15,17.64,22.71,6.79-6.57,19.95-21.24,20-30.78,0-11.27-8.87-20.45-19.82-20.48s-19.89,9.13-19.91,20.4a2.49,2.49,0,1,1-5,0c0-14,11.19-25.38,24.89-25.35s24.81,11.44,24.78,25.45c0,14.68-22.29,35.12-23.23,36A2.52,2.52,0,0,1,146,418.75Z"/><text class="cls-8" transform="translate(0.08 418.65) rotate(0.12)"><tspan class="cls-3">K</tspan><tspan x="55.93" y="0" xml:space="preserve">ri  Au</tspan><tspan class="cls-4" x="285" y="0">t</tspan><tspan x="320.15" y="0">o </tspan></text><text class="cls-9" transform="matrix(0.01, 1, -1, 0.01, 383.86, 356.8)">.ma</text><path d="M146.49,550a4.19,4.19,0,1,0,4.17,4.19A4.18,4.18,0,0,0,146.49,550Zm9.34,3.16a9.4,9.4,0,0,0-8.28-8.32v-2.15h-2.09v2.15a9.42,9.42,0,0,0-8.32,8.29H135v2.1h2.15a9.42,9.42,0,0,0,8.29,8.32v2.15h2.09v-2.16a9.4,9.4,0,0,0,8.32-8.28H158v-2.09Zm-9.36,8.34a7.32,7.32,0,1,1,7.33-7.3A7.33,7.33,0,0,1,146.47,561.48Z"/><path class="cls-10" d="M146,588.74a2.5,2.5,0,0,1-1.61-.59c-.6-.51-14.73-12.7-20.61-26a2.49,2.49,0,1,1,4.55-2c4.29,9.7,13.8,19.14,17.64,22.7,6.79-6.56,19.95-21.24,20-30.77,0-11.27-8.87-20.46-19.82-20.48s-19.89,9.13-19.91,20.4a2.49,2.49,0,0,1-5,0c0-14,11.19-25.38,24.89-25.35s24.81,11.45,24.78,25.46c0,14.68-22.29,35.11-23.23,36A2.51,2.51,0,0,1,146,588.74Z"/><text class="cls-8" transform="translate(0.08 585.64) rotate(0.12)"><tspan class="cls-3">K</tspan><tspan x="55.93" y="0" xml:space="preserve">ri  </tspan><tspan class="cls-11" x="165.8" y="0">Au</tspan><tspan class="cls-12" x="285" y="0">t</tspan><tspan class="cls-10" x="320.15" y="0">o</tspan><tspan class="cls-13" x="376.23" y="0"> </tspan></text><text class="cls-14" transform="matrix(0.01, 1, -1, 0.01, 383.86, 526.8)">.ma</text></g></g></svg>