<svg xmlns="http://www.w3.org/2000/svg" viewBox="0 0 40.65 40.65"><defs><style>.cls-1{fill:#c00;}</style></defs><title>Asset 2</title><g id="Layer_2" data-name="Layer 2"><g id="Set_of_64_UI_Icons" data-name="Set of 64 UI Icons"><g id="X_Mark_2" data-name="X Mark 2"><path class="cls-1" d="M20.32,0A20.21,20.21,0,0,0,0,20.32,20.21,20.21,0,0,0,20.32,40.65,20.21,20.21,0,0,0,40.65,20.32,20.21,20.21,0,0,0,20.32,0Zm3,20.33,4.12,4.11a2.28,2.28,0,0,1,0,2.82h0a2.28,2.28,0,0,1-2.82,0l-4.11-4.55h-.22L16.2,27.26a2.26,2.26,0,0,1-2.81,0h0a2.28,2.28,0,0,1,0-2.82l4.55-4.11v-.22L13.39,16a2.28,2.28,0,0,1,0-2.82h0a2.26,2.26,0,0,1,2.81,0l4.12,3h.22l4.11-3a2.28,2.28,0,0,1,2.82,0h0a2.28,2.28,0,0,1,0,2.82l-4.12,4.11C23.13,20.11,23.13,20.33,23.35,20.33Z"/></g></g></g></svg>