<svg xmlns="http://www.w3.org/2000/svg" viewBox="0 0 50 50"><defs><style>.cls-1{fill:#13b72e;}</style></defs><title>Asset 19</title><g id="Layer_2" data-name="Layer 2"><g id="Set_of_64_UI_Icons" data-name="Set of 64 UI Icons"><g id="Check_Mark_1" data-name="Check Mark 1"><path class="cls-1" d="M25,0A24.86,24.86,0,0,0,0,25,24.86,24.86,0,0,0,25,50,25,25,0,0,0,25,0Zm0,44.85A19.85,19.85,0,1,1,44.85,25,19.87,19.87,0,0,1,25,44.85Z"/><path class="cls-1" d="M21.14,33.51l-5.93-5.93a2.81,2.81,0,0,1,0-3.87h0a2.8,2.8,0,0,1,3.86,0l3.35,3.35,9.28-9.28a2.81,2.81,0,0,1,3.87,0h0a2.81,2.81,0,0,1,0,3.87L23.71,33.51C23.46,34.28,21.91,34.28,21.14,33.51Z"/></g></g></g></svg>