<svg xmlns="http://www.w3.org/2000/svg" viewBox="0 0 50 50"><defs><style>.cls-1{fill:#13b72e;}</style></defs><title>Asset 17</title><g id="Layer_2" data-name="Layer 2"><g id="Set_of_64_UI_Icons" data-name="Set of 64 UI Icons"><g id="Forward_Arrow_3" data-name="Forward Arrow 3"><path class="cls-1" d="M19.59,15.46V34.54a1.19,1.19,0,0,0,2.06.77l11.86-9a1.72,1.72,0,0,0,0-2.58l-11.86-9C20.88,14.18,19.59,14.69,19.59,15.46Z"/><path class="cls-1" d="M25,50A24.86,24.86,0,0,0,50,25,24.86,24.86,0,0,0,25,0,24.86,24.86,0,0,0,0,25C-.25,38.66,11.09,50,25,50ZM25,5.15A19.85,19.85,0,1,1,5.16,25,19.86,19.86,0,0,1,25,5.15Z"/></g></g></g></svg>