<svg xmlns="http://www.w3.org/2000/svg" viewBox="0 0 50 50"><defs><style>.cls-1{fill:#fff;}.cls-2{fill:#13b72e;}</style></defs><title>Asset 20</title><g id="Layer_2" data-name="Layer 2"><g id="Set_of_64_UI_Icons" data-name="Set of 64 UI Icons"><g id="Forward_Arrow_3" data-name="Forward Arrow 3"><path class="cls-1" d="M18.48,13.4v23a1.44,1.44,0,0,0,2.49.93l14.3-10.88a2.08,2.08,0,0,0,0-3.11L21,12.46C20,11.84,18.48,12.46,18.48,13.4Z"/></g><g id="Forward_Arrow_5" data-name="Forward Arrow 5"><path class="cls-2" d="M25,0A24.86,24.86,0,0,0,0,25,24.86,24.86,0,0,0,25,50,24.86,24.86,0,0,0,50,25,24.86,24.86,0,0,0,25,0Zm9,26-12.11,9.8a1.35,1.35,0,0,1-2.06-1V14.43a1.35,1.35,0,0,1,2.06-1L34,23.2A2,2,0,0,1,34,26Z"/></g></g></g></svg>