<svg xmlns="http://www.w3.org/2000/svg" viewBox="0 0 47.41 50.66"><defs><style>.cls-1{fill:#dc1b0c;}</style></defs><title>Asset 23</title><g id="Layer_2" data-name="Layer 2"><g id="Set_of_64_UI_Icons" data-name="Set of 64 UI Icons"><path class="cls-1" d="M23.71,50.66A23.73,23.73,0,0,1,0,27,23.49,23.49,0,0,1,7,10.19a1,1,0,1,1,1.47,1.48,21.62,21.62,0,0,0,15.29,36.9A21.63,21.63,0,0,0,45.33,27,21.43,21.43,0,0,0,39,11.67a1,1,0,0,1,1.48-1.48A23.71,23.71,0,0,1,23.71,50.66Z"/><path class="cls-1" d="M23.71,23.05a1,1,0,0,1-1-1V1a1,1,0,1,1,2.08,0V22A1,1,0,0,1,23.71,23.05Z"/></g></g></svg>