<svg xmlns="http://www.w3.org/2000/svg" viewBox="0 0 36.33 44.63"><defs><style>.cls-1{fill:#1c8bf9;}</style></defs><title>Asset 11</title><g id="Layer_2" data-name="Layer 2"><g id="Set_of_64_UI_Icons" data-name="Set of 64 UI Icons"><g id="Elliptical_Arrows_2" data-name="Elliptical Arrows 2"><path class="cls-1" d="M16,4.55a1.54,1.54,0,0,1-1.68-1.12L13.77.63c-.14-.7-.89-.79-1.54-.41L4.74,8.78a1.58,1.58,0,0,0,.47,2.33l10.23,5c.56.37,1.4-.28,1.26-1l-.52-2.57a1.52,1.52,0,0,1,1.58-1.77A12.12,12.12,0,0,1,29.61,27.27a3,3,0,0,0,1.5,3.83h0a2.79,2.79,0,0,0,3.83-1.51,17.76,17.76,0,0,0,1-10.4A18.2,18.2,0,0,0,16,4.55Z"/><path class="cls-1" d="M20.32,40.08A1.54,1.54,0,0,1,22,41.2l.57,2.8c.14.7.88.79,1.54.41l7.48-8.56a1.58,1.58,0,0,0-.47-2.33l-10.23-5c-.56-.37-1.4.28-1.26,1l.52,2.57a1.52,1.52,0,0,1-1.58,1.77A12.07,12.07,0,0,1,5.9,21.65a12.21,12.21,0,0,1,.82-4.3,3,3,0,0,0-1.5-3.82h0A2.77,2.77,0,0,0,1.4,15a17.76,17.76,0,0,0-1,10.4C2.53,35,11.08,41.23,20.32,40.08Z"/></g></g></g></svg>