<svg xmlns="http://www.w3.org/2000/svg" viewBox="0 0 39.06 44.67"><defs><style>.cls-1{fill:#1c8bf9;}</style></defs><title>Asset 9</title><g id="Layer_2" data-name="Layer 2"><g id="Set_of_64_UI_Icons" data-name="Set of 64 UI Icons"><g id="Elliptical_Arrows_1" data-name="Elliptical Arrows 1"><path class="cls-1" d="M19,4V.87c0-.77-.77-1-1.54-.77L7.7,7.55a1.71,1.71,0,0,0,0,2.57l9.77,7.46c.51.51,1.54,0,1.54-.77V14a1.65,1.65,0,0,1,2.06-1.54,13.05,13.05,0,0,1,10.8,15.68,12.69,12.69,0,0,1-9.77,9.77A13.06,13.06,0,0,1,6.16,25.29a12.05,12.05,0,0,1,2.31-7.2,3.22,3.22,0,0,0-.77-4.37h0a3,3,0,0,0-4.37.77A18.52,18.52,0,0,0,.5,29.41,19.25,19.25,0,0,0,15.67,44.32a19.54,19.54,0,0,0,23.39-19A19.15,19.15,0,0,0,21.32,6C19.78,5.5,19,4.72,19,4Z"/></g></g></g></svg>